<?xml version="1.0" encoding="utf-8"?>
<svg xmlns="http://www.w3.org/2000/svg" height="200" viewBox="0 0 2748 800" width="687">
<defs>
    <mask id="bw-holes">
<rect fill="white" height="800" width="2748"/>
<path d="M2549.73 624.19 c3.72 1.21 7 2.47 7.27 2.8 .28 .33 1.99 1.65 3.82 2.92 1.83&#xA;1.28 3.76 3.49 4.3 4.91 .67 1.76 .63 4.85 -.13 9.63 -.61 3.87 -2.07 9.74&#xA;-3.24 13.04 -1.17 3.3 -4.36 9.74 -7.08 14.31 -2.72 4.57 -7.93 11.26 -11.56&#xA;14.88 -6.6 6.56 -11.8 9.7 -17.86 10.77 -1.76 .31 -5.31 .09 -7.88 -.48 -3.48&#xA;-.78 -5.66 -2.12 -8.54 -5.26 -3.91 -4.27 -5.38 -7.76 -6.49 -15.46 -.73&#xA;-5.06 1.01 -14.8 3.88 -21.75 2.64 -6.38 6.13 -13.85 6.78 -14.5 .28 -.27&#xA;2.23 -2.65 4.34 -5.28 3.67 -4.56 9.46 -8.27 17.63 -11.28 1.94 -.72 4.53&#xA;-1.33 5.76 -1.37 1.23 -.04 5.28 .92 9 2.12z" fill="black"/>
</mask>
  </defs>
<path d="M230.12 127.88 c-1.24 .2 -2.12 .8 -2.12 1.31 0 .51 -.9 .81 -2 .81 -1.1 0 -2&#xA;.45 -2 1 0 .55 -.61 1 -1.36 1 -1.13 0 -4.82 2.47 -10.14 6.79 -.55 .45 -1.79&#xA;1.11 -2.75 1.48 -.96 .37 -1.75 1.3 -1.75 2.07 0 .77 -1.29 1.66 -2.86 1.98&#xA;-1.57 .31 -4.43 2.1 -6.35 3.96 -1.92 1.86 -4.23 3.67 -5.14 4.02 -.91 .35&#xA;-1.65 1.32 -1.65 2.17 0 .84 -.81 1.53 -1.81 1.53 -1.84 0 -10.14 6.55 -15.78&#xA;12.44 -1.7 1.77 -3.84 3.51 -4.75 3.86 -.91 .35 -1.66 1.27 -1.66 2.05 0 .78&#xA;-.9 1.65 -2 1.94 -1.1 .29 -2 1.19 -2 2 0 .81 -.9 1.71 -2 2 -1.1 .29 -2 1.19&#xA;-2 2 0 .81 -.9 1.71 -2 2 -1.1 .29 -2 1.19 -2 2 0 .81 -.9 1.71 -2 2 -1.1 .29&#xA;-2 1.19 -2 2 0 .81 -.9 1.71 -2 2 -1.1 .29 -2 1.19 -2 2 0 .81 -.9 1.71 -2 2&#xA;-1.1 .29 -2 1.19 -2 2 0 .81 -.9 1.71 -2 2 -1.1 .29 -2 1.24 -2 2.12 0 .88&#xA;-.69 1.59 -1.53 1.59 -.84 0 -1.77 .63 -2.07 1.4 -.3 .77 -3.21 4.22 -6.47&#xA;7.67 -3.75 3.96 -5.93 7.13 -5.93 8.6 0 1.42 -.59 2.33 -1.53 2.33 -.84 0&#xA;-1.83 .79 -2.18 1.75 -.36 .96 -1.36 2.27 -2.22 2.9 -.86 .63 -2.69 3.3 -4.07&#xA;5.93 -1.38 2.63 -3.29 5.6 -4.25 6.6 -.96 1 -1.75 2.83 -1.75 4.08 -0 1.24&#xA;-.9 2.82 -2 3.51 -1.28 .8 -2 2.33 -2 4.24 0 1.96 -.5 2.99 -1.47 2.99 -.81 0&#xA;-2.88 2.81 -4.59 6.25 -3.35 6.7 -5.75 11.34 -7.1 13.75 -.46 .83 -1.13 2.17&#xA;-1.48 3 -.35 .83 -1.7 3.88 -2.99 6.78 -1.29 2.9 -2.35 6.24 -2.35 7.42 0&#xA;1.18 -.76 2.98 -1.69 4.01 -1.05 1.16 -1.86 4.16 -2.13 7.96 -.31 4.22 -1.03&#xA;6.68 -2.35 8 -1.82 1.82 -1.89 3.65 -1.62 39.45 .25 32.99 .48 37.69 1.88&#xA;38.72 .91 .67 1.83 3.29 2.15 6.11 .32 2.84 1.24 5.44 2.16 6.11 .88 .64 1.6&#xA;2.41 1.6 3.92 0 1.51 .86 4.39 1.9 6.39 1.05 2 2.45 5.1 3.12 6.89 .67 1.79&#xA;1.62 3.25 2.1 3.25 .48 0 .88 .72 .88 1.6 -0 .88 .83 2.79 1.84 4.25 1.01&#xA;1.46 2.12 3.44 2.47 4.4 .35 .96 1.32 1.75 2.16 1.75 .92 0 1.53 .9 1.53 2.25&#xA;0 1.24 1.13 3.56 2.5 5.16 1.37 1.6 2.5 3.29 2.5 3.75 -0 .46 .67 .84 1.5 .84&#xA;.83 0 1.5 .89 1.5 1.97 0 1.13 4.09 6.24 9.62 12 6.9 7.19 10.29 10.03 12&#xA;10.03 1.71 -0 2.38 .56 2.38 2 0 1.33 .67 2 2 2 1.13 0 2 .67 2 1.53 -0 .84&#xA;.79 1.83 1.75 2.2 .96 .37 2.62 1.48 3.69 2.47 1.07 .99 2.93 1.8 4.13 1.8&#xA;1.35 0 2.4 .77 2.72 2 .29 1.1 1.24 2 2.12 2 .88 0 1.59 .43 1.59 .95 0 1.22&#xA;8.43 7.05 10.19 7.05 .73 0 1.89 .9 2.58 2 .8 1.28 2.33 2 4.24 2 1.96 0 2.99&#xA;.5 2.99 1.47 0 .81 2.81 2.88 6.25 4.59 3.44 1.72 7.6 3.84 9.25 4.71 8.2&#xA;4.33 10.52 5.23 13.39 5.23 2.02 0 3.11 .5 3.11 1.42 0 .8 1.42 1.71 3.25&#xA;2.08 1.79 .36 5.16 1.52 7.49 2.58 2.33 1.06 5.05 1.92 6.04 1.92 .99 0 3.56&#xA;.9 5.72 2 2.17 1.11 5.9 2 8.35 2 2.9 0 4.83 .55 5.6 1.6 .79 1.09 3.4 1.78&#xA;8.11 2.16 4.35 .35 7.34 1.09 8 2 .73 .99 3.87 1.61 10 1.99 4.92 .3 9.24&#xA;1.01 9.6 1.57 .8 1.24 9.19 2.52 17.23 2.62 4.32 .05 6.22 .52 7.13 1.77 .89&#xA;1.22 3.16 1.81 8.11 2.11 3.78 .23 7.37 .82 7.99 1.32 2.6 2.09 18.6 2.81&#xA;62.53 2.84 44.4 .03 66.2 -.94 68.31 -3.03 .52 -.52 3.08 -.94 5.67 -.94 5.56&#xA;0 14.88 -1.99 14.88 -3.17 0 -.46 3.71 -.83 8.25 -.83 7.63 -0 19.87 -1.78 24&#xA;-3.49 1.3 -.54 1.75 -1.88 1.75 -5.18 -0 -2.45 -.5 -5.44 -1.12 -6.64 -.62&#xA;-1.2 -2.5 -3.65 -4.2 -5.43 -2.87 -3.03 -3.52 -3.25 -9.71 -3.25 -3.65 0&#xA;-6.95 -.31 -7.33 -.7 -.38 -.38 -1.25 -.78 -1.92 -.89 -.67 -.11 -3.89 -.69&#xA;-7.15 -1.3 -3.26 -.61 -8.78 -1.11 -12.25 -1.11 -3.47 0 -6.32 -.36 -6.32&#xA;-.79 0 -1.27 -8.56 -3.21 -14.15 -3.21 -3.58 0 -5.48 -.49 -6.32 -1.63 -.73&#xA;-1 -3.2 -1.82 -6.36 -2.13 -2.84 -.27 -5.17 -.84 -5.17 -1.25 0 -1.04 -8.12&#xA;-2.99 -12.44 -2.99 -1.96 0 -3.56 -.41 -3.56 -.9 0 -1.2 -5.59 -3.1 -9.15&#xA;-3.1 -1.57 0 -2.85 -.38 -2.85 -.84 0 -1.37 -4.84 -3.16 -8.55 -3.16 -1.9 0&#xA;-3.45 -.38 -3.45 -.84 0 -1.37 -4.84 -3.16 -8.55 -3.16 -1.9 0 -3.45 -.4&#xA;-3.45 -.88 0 -.48 -1.46 -1.42 -3.25 -2.08 -1.79 -.66 -5.17 -2.06 -7.53&#xA;-3.12 -2.35 -1.06 -5.2 -1.92 -6.32 -1.92 -1.12 0 -2.72 -.67 -3.54 -1.5 -.82&#xA;-.82 -2.7 -1.8 -4.17 -2.17 -1.47 -.37 -3.27 -1.27 -4 -2 -.73 -.73 -2.53&#xA;-1.63 -4 -2 -1.47 -.37 -3.29 -1.29 -4.05 -2.05 -.76 -.76 -2.68 -1.64 -4.26&#xA;-1.96 -1.58 -.32 -2.89 -1.08 -2.9 -1.7 -.01 -.62 -2.32 -2.25 -5.13 -3.62&#xA;-2.81 -1.38 -6.49 -3.51 -8.18 -4.75 -1.68 -1.24 -3.88 -2.25 -4.87 -2.25&#xA;-.99 0 -1.81 -.69 -1.81 -1.53 0 -.84 -.79 -1.82 -1.75 -2.16 -.96 -.35 -2.94&#xA;-1.46 -4.4 -2.47 -1.46 -1.01 -3.13 -1.84 -3.7 -1.84 -.58 0 -2.15 -1.01&#xA;-3.49 -2.25 -5.94 -5.48 -11.61 -9.75 -12.96 -9.75 -.8 0 -1.7 -.9 -1.99 -2&#xA;-.29 -1.1 -1.19 -2 -2 -2 -.81 0 -1.71 -.9 -2 -2 -.29 -1.1 -1.19 -2 -2 -2&#xA;-.81 -0 -1.71 -.9 -2 -2 -.29 -1.1 -1.19 -2 -2 -2 -.81 0 -1.71 -.9 -2 -2&#xA;-.29 -1.1 -1.24 -2 -2.12 -2 -.88 0 -1.59 -.69 -1.59 -1.53 0 -.84 -.79 -1.81&#xA;-1.75 -2.16 -2.09 -.75 -13.73 -12.52 -14.59 -14.75 -.33 -.86 -1.29 -1.56&#xA;-2.13 -1.56 -.84 -0 -1.53 -.71 -1.53 -1.59 -0 -1.72 -5.89 -10.41 -7.05&#xA;-10.41 -.39 0 -.95 -.9 -1.24 -2 -.29 -1.1 -1.24 -2 -2.12 -2 -1 0 -1.59 -.86&#xA;-1.59 -2.31 0 -1.27 -.81 -3.18 -1.8 -4.25 -.99 -1.07 -2.1 -2.73 -2.47 -3.69&#xA;-.37 -.96 -1.36 -1.75 -2.2 -1.75 -.97 0 -1.53 -.92 -1.53 -2.5 0 -1.38 -.9&#xA;-3.4 -2 -4.5 -1.1 -1.1 -2 -2.9 -2 -4 -0 -1.1 -.9 -2.9 -2 -4 -1.1 -1.1 -2&#xA;-2.9 -2 -4 0 -1.1 -.9 -2.9 -2 -4 -1.1 -1.1 -2 -3.12 -2 -4.49 -0 -1.41 -.87&#xA;-3.03 -2 -3.74 -1.51 -.94 -2 -2.33 -2 -5.69 0 -2.44 -.83 -6.27 -1.85 -8.51&#xA;-1.02 -2.24 -2.36 -7.83 -2.98 -12.44 -.62 -4.61 -1.64 -9 -2.27 -9.76 -.8&#xA;-.97 -1.18 -10.63 -1.25 -32.25 -.07 -21.72 .24 -31.28 1.04 -32.24 .63 -.76&#xA;1.69 -4.3 2.36 -7.87 .67 -3.58 1.84 -7.93 2.6 -9.67 .75 -1.74 1.67 -4.67&#xA;2.03 -6.5 .36 -1.83 1.48 -4.68 2.49 -6.33 1 -1.65 1.83 -4.24 1.83 -5.75 0&#xA;-1.51 .9 -3.65 2 -4.75 1.1 -1.1 2 -2.9 2 -4 0 -1.1 .9 -2.9 2 -4 1.1 -1.1 2&#xA;-3.02 2 -4.26 0 -1.24 .9 -2.82 2 -3.51 1.11 -.69 2 -2.33 2 -3.69 0 -1.34&#xA;1.04 -3.56 2.31 -4.93 1.27 -1.37 3.18 -4.15 4.25 -6.17 1.07 -2.02 3.2 -5.05&#xA;4.75 -6.73 1.55 -1.68 3.44 -4.27 4.21 -5.76 .77 -1.49 2.09 -2.97 2.94 -3.29&#xA;.85 -.32 1.45 -1.4 1.45 -2.52 0 -1.12 .86 -2.14 1.55 -2.14 .69 -0 2.13 -1.9&#xA;3.45 -4.22 l2.4 -4.21 -5.9 -5.38 c-3.25 -2.96 -6.58 -5.7 -7.4 -6.09 -.82&#xA;-.39 -2.64 -.43 -3.88 -.22z M1385.7 150.59 c-2.64 1.37 -5.05 3.15 -5.36&#xA;3.95 -.31 .8 -1.58 1.46 -2.83 1.46 -1.25 0 -2.87 .72 -3.6 1.6 -.73 .88&#xA;-2.36 2 -3.62 2.48 -1.26 .48 -2.29 1.56 -2.29 2.4 0 .84 -.81 1.52 -1.81&#xA;1.52 -1 0 -4.26 2.09 -7.25 4.64 -6.33 5.39 -18.91 19.34 -18.93 20.99 -.01&#xA;.62 -1.61 2.86 -3.56 4.99 -1.95 2.13 -3.82 5 -4.16 6.38 -.34 1.38 -1.45 3.1&#xA;-2.46 3.82 -1.06 .75 -1.84 2.53 -1.84 4.18 0 2 -.61 3.07 -2 3.51 -1.48 .47&#xA;-2 1.51 -2 3.98 0 1.84 -.49 3.51 -1.09 3.71 -.78 .26 -1.1 45.62 -1.13&#xA;159.79 -.03 118.02 .25 159.52 1.09 159.8 .62 .21 1.13 .97 1.13 1.69 0 .72&#xA;.73 1.59 1.62 1.93 2.49 .95 1226.87 .51 1235.13 -.45 3.99 -.46 10.74 -2.04&#xA;15 -3.51 8.38 -2.88 20.25 -9.06 20.25 -10.54 0 -.5 .63 -.91 1.41 -.91 2.25&#xA;-0 11.44 -7.56 19.9 -16.37 8.08 -8.42 18.69 -23.09 18.69 -25.84 0 -.87 .64&#xA;-1.82 1.42 -2.12 .78 -.3 2.69 -2.71 4.25 -5.36 l2.83 -4.81 -.37 -152.37&#xA;c-.31 -128.29 -.15 -152.5 1 -153.22 1.14 -.71 1.16 -1.19 .12 -2.87 -.69&#xA;-1.11 -1.25 -5.12 -1.25 -8.92 0 -5.38 -.35 -7.04 -1.59 -7.52 -.87 -.33&#xA;-282.91 -.59 -626.75 -.56 l-625.16 .05 -4.8 2.5z m1086.11 81.16 c.27 3.72&#xA;.05 4.25 -1.75 4.25 -1.2 0 -2.06 .65 -2.06 1.57 0 .86 -.64 2.21 -1.43 3&#xA;-.79 .79 -1.71 3.79 -2.05 6.68 -.93 7.8 -.16 117.45 .83 118.42 1.1 1.07&#xA;10.62 -9.6 10.64 -11.92 .01 -.96 .7 -1.75 1.54 -1.75 .84 0 1.79 -.68 2.11&#xA;-1.5 .75 -1.96 20.9 -22.1 22.86 -22.86 .83 -.32 1.5 -1.27 1.5 -2.11 0 -.95&#xA;.91 -1.53 2.38 -1.53 1.31 0 2.94 -.68 3.63 -1.51 1.5 -1.8 8.07 -4.95 16.99&#xA;-8.12 4.29 -1.53 8.79 -2.32 13.23 -2.34 5 -.02 7.57 .49 10 1.97 1.8 1.1&#xA;4.74 2 6.52 2 2.7 0 3.25 .38 3.25 2.25 0 1.24 1.75 4.16 3.88 6.5 3.4 3.71&#xA;3.96 5.03 4.48 10.5 .33 3.44 .71 29.31 .85 57.5 .2 40.51 .52 51.25 1.52&#xA;51.25 .87 0 1.26 1.75 1.26 5.57 0 3.06 .52 6.55 1.15 7.75 .63 1.2 2.24 3.2&#xA;3.57 4.45 3.94 3.69 9.9 6.24 14.62 6.24 4.11 0 4.46 .21 5.01 3 .33 1.65 .33&#xA;4.35 0 6 l-.6 3 -29.83 0 -29.83 0 -.64 -3.41 c-.35 -1.88 -.32 -4.46 .07&#xA;-5.75 .39 -1.29 1.63 -3.34 2.75 -4.56 2 -2.19 2.03 -3.14 1.84 -61.29 -.11&#xA;-32.48 -.47 -59.83 -.79 -60.78 -.33 -.94 -1.97 -3.18 -3.65 -4.96 l-3.05&#xA;-3.25 -11.9 0 c-11.06 0 -11.93 .14 -12.42 2 -.34 1.32 -1.36 2 -2.99 2 -1.73&#xA;0 -4.67 2.21 -9.88 7.42 -5.39 5.39 -7.42 8.12 -7.42 10 0 1.91 -.52 2.58 -2&#xA;2.58 -1.24 0 -2 .67 -2 1.76 0 .97 -.9 2.32 -2 3.01 -1.28 .8 -2 2.33 -2 4.24&#xA;0 1.89 -.51 2.99 -1.39 2.99 -1.53 0 -2.61 2.1 -2.61 5.08 0 1.06 -.9 2.82 -2&#xA;3.92 -1.1 1.1 -2 3.12 -2 4.5 0 1.38 -.41 2.5 -.9 2.5 -.5 0 -1.43 2.36 -2.09&#xA;5.25 -.65 2.89 -1.92 6.82 -2.82 8.75 -1 2.14 -1.78 6.99 -2.01 12.5 -.27&#xA;6.35 -.79 9.24 -1.78 9.8 -1 .57 -1.4 2.92 -1.4 8.25 0 5.96 .3 7.45 1.5 7.45&#xA;1.19 0 1.5 1.46 1.5 7.16 0 5.79 .47 7.96 2.44 11.32 1.34 2.29 4.18 5.36 6.3&#xA;6.84 3.38 2.34 4.84 2.68 11.56 2.68 l7.7 0 0 3.69 c0 2.41 -.75 4.49 -2.17 6&#xA;l-2.17 2.31 -39.83 0 -39.83 0 0 -5.86 0 -5.86 6.55 -.53 c3.6 -.29 7.31&#xA;-1.18 8.25 -1.98 .94 -.8 2.49 -1.74 3.45 -2.08 .96 -.34 1.75 -1.31 1.75&#xA;-2.15 0 -.84 .67 -1.53 1.49 -1.53 .82 0 2.28 -1.69 3.25 -3.75 1.64 -3.49&#xA;1.78 -10.43 2.04 -98.75 l.28 -95 -3.1 -3.4 -3.1 -3.4 -9.91 .6 c-9.12 .56&#xA;-9.99 .45 -10.95 -1.33 -.57 -1.07 -.76 -3.03 -.43 -4.36 .45 -1.79 1.52 -2.6&#xA;4.08 -3.08 1.91 -.36 3.72 -1.3 4.02 -2.1 .32 -.83 1.88 -1.45 3.7 -1.45 1.73&#xA;-0 4.62 -.9 6.42 -2 1.8 -1.1 4.16 -2 5.25 -2 1.09 0 2.88 -.9 3.98 -2 1.1&#xA;-1.1 3.1 -2 4.45 -2 2.41 0 7.56 -1.86 8.55 -3.08 .28 -.34 1.62 -.87 3 -1.17&#xA;1.38 -.3 4.97 -1.49 8 -2.64 3.03 -1.15 7.07 -1.98 9 -1.85 3.36 .23 3.51 .41&#xA;3.81 4.49z m-680.15 3.84 c2.94 .43 4.3 1.17 4.66 2.51 .27 1.05 1.15 1.9&#xA;1.95 1.9 1.09 0 1.63 1.95 2.15 7.7 .38 4.24 .38 15.04 -.01 24 -.65 14.96&#xA;-.86 16.3 -2.56 16.3 -1.02 0 -1.86 -.45 -1.86 -1 0 -.55 -1.52 -1 -3.38 -1&#xA;-1.86 0 -3.82 -.56 -4.36 -1.25 -.54 -.69 -1.28 -3.48 -1.63 -6.21 -.36 -2.73&#xA;-1.09 -5.41 -1.64 -5.95 -.54 -.54 -.99 -1.99 -.99 -3.21 0 -3.26 -1.03 -5.38&#xA;-2.61 -5.38 -.81 0 -1.39 -1.02 -1.39 -2.42 0 -3.37 -.99 -5.58 -2.49 -5.58&#xA;-.7 0 -1.51 -.9 -1.8 -2 -.4 -1.53 -1.36 -2 -4.12 -2 -1.98 0 -3.59 -.45&#xA;-3.59 -1 0 -.55 -.9 -1 -2 -1 -1.1 0 -2 .45 -2 1 0 .55 -2.25 1 -4.99 1 -3.91&#xA;0 -5.26 .43 -6.24 2 -.69 1.1 -1.83 2 -2.54 2 -.71 0 -1.58 .75 -1.93 1.67&#xA;-.35 .92 -1.46 2.5 -2.47 3.5 -1 1 -1.83 2.95 -1.83 4.33 0 1.46 -.57 2.5&#xA;-1.38 2.5 -.76 0 -1.65 1.01 -1.99 2.25 -.33 1.24 -.61 4.79 -.62 7.89 -.01&#xA;4.08 -.43 5.8 -1.51 6.22 -1.18 .45 -1.5 2.51 -1.5 9.64 0 7.13 .32 9.19 1.5&#xA;9.64 1.02 .39 1.5 1.99 1.5 4.97 0 3.06 .61 5 2 6.39 1.1 1.1 2 2.46 2 3.03 0&#xA;.57 .75 1.32 1.67 1.67 .92 .35 2.5 1.46 3.5 2.47 1 1 2.67 1.83 3.71 1.83&#xA;1.04 0 3.17 .67 4.75 1.49 1.58 .82 5.39 1.5 8.47 1.5 3.08 0 8.37 .3 11.75&#xA;.65 l6.15 .64 0 3.73 c0 3.38 -.29 3.79 -3.12 4.36 -1.72 .34 -10.61 .63&#xA;-19.75 .64 -9.14 .01 -17.65 .29 -18.9 .62 l-2.27 .61 .27 58.71 .27 58.71&#xA;2.79 3.66 c1.54 2.02 4.01 3.97 5.5 4.34 1.49 .37 3.18 1.32 3.77 2.11 .58&#xA;.79 3.21 1.68 5.85 1.98 3.21 .36 5.57 1.33 7.19 2.94 1.32 1.32 2.4 2.81 2.4&#xA;3.31 0 .5 -1.15 2.05 -2.55 3.45 l-2.55 2.55 -37.2 -0 -37.2 -0 -2.89 -2.32&#xA;c-2.57 -2.05 -2.82 -2.73 -2.2 -6 .68 -3.61 .78 -3.68 5.3 -3.68 2.85 0 6.64&#xA;-.96 9.95 -2.53 2.94 -1.39 5.35 -3.08 5.35 -3.76 0 -.68 .9 -1.79 2 -2.48&#xA;1.28 -.8 2 -2.33 2 -4.24 0 -1.65 .45 -2.99 1 -2.99 .65 0 1 -18.93 1 -54.8 0&#xA;-41.74 -.3 -55.44 -1.25 -57.49 -1.24 -2.67 -1.33 -2.69 -11.81 -2.7 -7.07&#xA;-.01 -11.15 -.44 -12.34 -1.31 -1.18 -.86 -1.66 -2.28 -1.44 -4.21 .32 -2.8&#xA;.64 -2.97 8.15 -4.3 6.84 -1.22 8.31 -1.88 11.77 -5.27 2.18 -2.13 4.23 -5.24&#xA;4.56 -6.9 .33 -1.66 .93 -3.02 1.32 -3.02 .89 0 3.03 -6.97 3.03 -9.87 0&#xA;-1.17 .41 -2.13 .9 -2.13 1.13 0 3.1 -5.5 3.1 -8.65 0 -1.29 .9 -3.25 2 -4.35&#xA;1.1 -1.1 2 -2.9 2 -4 0 -1.1 .9 -2.9 2 -4 1.1 -1.1 2 -2.9 2 -4 0 -1.1 .9&#xA;-2.9 2 -4 1.1 -1.1 2 -3.12 2 -4.5 0 -1.58 .56 -2.5 1.53 -2.5 .84 0 1.79&#xA;-.68 2.11 -1.51 .76 -1.97 16.88 -18.09 18.85 -18.85 .83 -.32 1.51 -1.27&#xA;1.51 -2.11 0 -.97 .92 -1.53 2.51 -1.53 1.38 0 4.42 -.85 6.75 -1.88 8.46&#xA;-3.75 17.09 -4.47 30.4 -2.53z m-337.97 14.59 c1.62 1.52 2.31 3.3 2.31 5.9&#xA;l0 3.73 -9.08 .35 c-7.22 .28 -9.34 .71 -10.36 2.1 -.7 .96 -1.76 1.75 -2.35&#xA;1.75 -.59 0 -1.36 .9 -1.71 2 -.35 1.1 -1.01 2 -1.47 2 -2.76 0 -3.03 8.57&#xA;-3.03 94.6 0 87.3 .21 93.4 3.16 93.4 .46 0 .84 .72 .84 1.59 0 .88 .9 1.83 2&#xA;2.12 1.1 .29 2 1.16 2 1.94 0 .78 .75 1.7 1.67 2.06 .92 .35 2.5 1.46 3.5&#xA;2.47 1.23 1.23 3.3 1.83 6.33 1.83 3.45 0 4.5 .37 4.5 1.59 0 .88 .9 1.83 2&#xA;2.12 1.1 .29 2 1.34 2 2.34 0 1 -.9 2.1 -2 2.45 -1.1 .35 -2 1.28 -2 2.07 0&#xA;1.22 -6.21 1.43 -42 1.43 -37.76 0 -42 -.16 -42 -1.59 0 -.88 -.9 -1.83 -2&#xA;-2.12 -1.1 -.29 -2 -1.32 -2 -2.29 0 -.97 .9 -2 2 -2.29 1.1 -.29 2 -1.24 2&#xA;-2.12 0 -1.23 1.06 -1.59 4.61 -1.59 3.08 0 6.2 -.87 9.38 -2.59 2.62 -1.43&#xA;5.83 -4.01 7.14 -5.75 l2.37 -3.16 .29 -90 c.16 -49.5 .04 -91.41 -.28 -93.14&#xA;-.31 -1.73 -1.79 -4.51 -3.29 -6.17 -4.29 -4.76 -9.14 -7.18 -14.43 -7.18&#xA;-3.7 -0 -5.25 -.54 -7.25 -2.55 -1.4 -1.4 -2.55 -3.07 -2.55 -3.71 0 -.64&#xA;1.01 -2.17 2.25 -3.39 l2.25 -2.22 41.44 -.06 c41.21 -.06 41.45 -.05 43.75&#xA;2.11z m586.31 13.83 c0 3.33 -.33 4 -2 4 -1.1 0 -2 .63 -2 1.39 0 .77 -1.34&#xA;2.83 -2.99 4.59 -1.64 1.76 -3.48 5.02 -4.08 7.25 -.61 2.28 -.95 9.5 -.76&#xA;16.49 .28 10.45 .61 12.64 2.08 13.71 .96 .7 1.75 2.21 1.75 3.34 0 1.18 1.78&#xA;3.59 4.18 5.64 2.3 1.97 4.91 3.58 5.8 3.58 .89 0 2.15 .53 2.8 1.18 .69 .69&#xA;6.51 1.52 13.88 1.98 8.38 .53 12.98 1.23 13.53 2.07 .79 1.2 .22 5.69 -.85&#xA;6.77 -.27 .28 -9.7 .73 -20.96 1 -16.71 .41 -20.63 .77 -21.4 2 -.57 .9 -.95&#xA;24.09 -.96 57.65 l-.02 56.15 2.72 3.1 c2.23 2.54 3.48 3.1 6.88 3.1 2.47 0&#xA;4.66 -.61 5.4 -1.5 .68 -.82 2.51 -1.5 4.07 -1.5 1.6 0 3.39 -.8 4.13 -1.84&#xA;.72 -1.01 2.51 -2.14 3.99 -2.5 1.47 -.36 3.35 -1.34 4.18 -2.16 2.17 -2.17&#xA;5.73 -1.89 6.35 .5 .29 1.1 .92 2 1.41 2 .49 0 .88 .9 .88 2 0 1.11 -.67 2&#xA;-1.5 2 -.82 0 -1.5 .38 -1.5 .85 0 1.23 -5.41 6.71 -7.35 7.45 -.91 .35 -1.65&#xA;1.32 -1.65 2.16 0 1.03 -.97 1.53 -2.94 1.53 -1.72 0 -3.49 .77 -4.25 1.84&#xA;-.72 1.01 -2.51 2.14 -3.99 2.5 -1.47 .36 -3.35 1.34 -4.18 2.16 -.82 .82&#xA;-2.43 1.5 -3.57 1.5 -1.14 0 -3.02 .95 -4.19 2.12 -1.87 1.87 -3.36 2.13&#xA;-12.75 2.25 l-10.63 .13 -4.85 -4.93 -4.85 -4.93 -.42 -66.01 c-.23 -36.3&#xA;-.66 -66.25 -.95 -66.54 -.29 -.29 -6.24 -.84 -13.22 -1.22 -6.98 -.38 -12.8&#xA;-.73 -12.94 -.77 -.14 -.05 -.25 -1.87 -.25 -4.05 l0 -3.97 5.07 -.67 c2.79&#xA;-.37 5.68 -1.29 6.43 -2.03 .75 -.75 2.68 -1.36 4.3 -1.36 1.62 0 4.12 -.93&#xA;5.57 -2.07 1.45 -1.14 2.63 -2.94 2.63 -4 0 -1.06 .62 -1.93 1.38 -1.93 .76 0&#xA;1.65 -1.01 1.99 -2.25 .33 -1.24 .61 -10.17 .62 -19.85 l.01 -17.6 4.41 -4.01&#xA;c3.17 -2.88 5.58 -4.17 8.58 -4.57 2.29 -.31 4.96 -1.27 5.92 -2.14 .96 -.87&#xA;2.95 -1.58 4.41 -1.58 1.58 0 3.17 -.81 3.91 -2 1.01 -1.62 2.33 -2 7.01 -2&#xA;l5.76 0 0 4z m-507.99 72.25 c.01 13.34 .29 25.28 .63 26.54 .34 1.26 1.12&#xA;2.12 1.74 1.92 .62 -.2 1.26 -1.3 1.43 -2.44 .17 -1.14 1.18 -2.3 2.25 -2.58&#xA;1.07 -.28 1.94 -1.23 1.94 -2.1 0 -.88 .69 -1.59 1.53 -1.59 .84 0 1.82 -.76&#xA;2.18 -1.69 .86 -2.24 24.31 -25.73 26.54 -26.58 .96 -.37 1.75 -1.36 1.75&#xA;-2.2 0 -.84 .71 -1.53 1.57 -1.53 1.83 0 10.43 -5.71 10.43 -6.92 0 -.45 2.04&#xA;-1.05 4.54 -1.33 2.5 -.28 5.35 -1.24 6.33 -2.13 1.38 -1.25 3.94 -1.62 11.34&#xA;-1.62 6.97 0 9.86 .38 10.71 1.4 .64 .77 2.36 1.7 3.82 2.07 1.46 .37 4.48&#xA;2.55 6.71 4.85 2.23 2.3 5.17 6.21 6.54 8.68 l2.49 4.5 .31 56.8 c.26 48.44&#xA;.52 56.88 1.76 57.36 .95 .37 1.45 2.03 1.45 4.85 0 3.41 .66 5.04 3.18 7.89&#xA;2.23 2.52 4.02 3.6 6 3.6 1.74 0 2.82 .53 2.82 1.39 0 .77 .71 1.67 1.58 2&#xA;.87 .33 3.57 .61 6 .61 l4.42 0 0 6 0 6 -29.88 0 -29.88 0 -.72 -2.25 c-.4&#xA;-1.24 -.85 -2.75 -1.01 -3.37 -.16 -.61 1.01 -3.66 2.6 -6.77 l2.89 -5.65 0&#xA;-57.42 c0 -38.14 -.36 -58.36 -1.06 -60.23 -.58 -1.55 -2.24 -4.05 -3.69&#xA;-5.57 -2.55 -2.67 -2.94 -2.75 -13.44 -2.75 -9.48 0 -11.06 .25 -12.81 2 -1.1&#xA;1.1 -2.89 2 -3.99 2 -1.18 0 -5.87 3.88 -11.5 9.51 -6.92 6.92 -9.51 10.19&#xA;-9.51 12 0 1.57 -.57 2.49 -1.53 2.49 -.84 0 -1.82 .79 -2.17 1.75 -.35 .96&#xA;-1.46 2.82 -2.47 4.13 -1.01 1.31 -1.83 3.22 -1.83 4.25 0 1.03 -.38 1.87&#xA;-.84 1.87 -1.37 0 -3.16 4.84 -3.16 8.55 0 2.28 -.47 3.45 -1.39 3.45 -.77 0&#xA;-1.67 .71 -2 1.58 -.33 .87 -.61 3.34 -.61 5.5 0 2.58 -.68 4.6 -2 5.92 -1.68&#xA;1.68 -2 3.33 -2 10.39 0 6.54 -.33 8.52 -1.5 8.97 -1.23 .47 -1.5 2.95 -1.5&#xA;13.64 0 10.69 .27 13.17 1.5 13.64 1.02 .39 1.5 1.99 1.5 5 0 3.72 .56 4.98&#xA;3.47 7.89 1.94 1.94 4.48 3.47 5.76 3.47 1.26 0 2.85 .9 3.54 2 1.06 1.69&#xA;2.33 2 8.24 2 l6.99 0 0 3.93 c0 3.05 -.45 4.07 -2 4.57 -1.1 .35 -2 1.28 -2&#xA;2.07 0 1.22 -5.95 1.43 -40 1.43 l-40 0 0 -5.89 0 -5.89 7.11 -.4 c5.22 -.3&#xA;7.44 -.86 8.36 -2.11 .69 -.94 1.92 -1.71 2.74 -1.71 .82 0 2.18 -.79 3.03&#xA;-1.75 .85 -.96 2.49 -3.86 3.65 -6.45 2.06 -4.59 2.11 -5.91 2.11 -57.78 0&#xA;-46.27 -.19 -53.16 -1.5 -53.66 -.83 -.32 -1.5 -1.39 -1.5 -2.4 0 -1 -1.24&#xA;-2.8 -2.75 -3.99 -2.28 -1.8 -3.73 -2.1 -8.46 -1.76 -3.47 .25 -6.45 1.07&#xA;-7.58 2.1 -1.03 .93 -2.62 1.69 -3.54 1.69 -1.38 0 -1.67 -1.06 -1.67 -6 l0&#xA;-6 3.25 -0 c1.79 -0 4.61 -.83 6.27 -1.85 1.66 -1.01 4.59 -2.14 6.5 -2.5&#xA;1.91 -.36 4.69 -1.29 6.16 -2.06 1.48 -.77 4.06 -1.7 5.74 -2.07 1.68 -.37&#xA;3.4 -1.25 3.82 -1.95 .42 -.7 2.73 -1.53 5.14 -1.85 2.41 -.31 5.1 -1.28 5.96&#xA;-2.15 1.07 -1.07 3.43 -1.58 7.36 -1.58 l5.79 0 .01 24.25z m369.11 -22.64&#xA;c1.08 .98 4.35 1.82 8.33 2.14 4.57 .37 6.55 .93 6.55 1.88 0 .8 1.62 1.61 4&#xA;1.99 2.2 .35 4 1.01 4 1.46 0 1.21 8.6 6.92 10.43 6.92 .86 0 1.57 .72 1.57&#xA;1.59 0 .88 .9 1.83 2 2.12 1.1 .29 2 1.19 2 2 0 .81 .86 1.7 1.91 1.98 1.05&#xA;.27 2.13 1.36 2.41 2.41 .27 1.05 1.22 1.91 2.09 1.91 1.03 0 1.59 .88 1.59&#xA;2.5 0 1.38 .9 3.4 2 4.5 1.1 1.1 2 2.9 2 4 0 1.1 .9 2.9 2 4 1.25 1.25 2 3.33&#xA;2 5.56 0 4.06 1.68 12.1 3.07 14.68 1.19 2.21 1.23 28.76 .05 28.76 -1.1 0&#xA;-3.12 7.8 -3.12 12.04 0 1.73 -.9 4.29 -2 5.69 -1.1 1.4 -2 3.2 -2 4 0 .8 -.9&#xA;2.6 -2 4 -1.1 1.4 -2 3.27 -2 4.17 0 .89 -.9 2.19 -2 2.87 -1.28 .8 -2 2.33&#xA;-2 4.24 0 2.32 -.45 2.99 -2 2.99 -1.33 0 -2 .67 -2 2 0 1.16 -.67 2 -1.59 2&#xA;-.88 0 -1.83 .9 -2.12 2 -.29 1.1 -1.19 2 -2 2 -.81 0 -1.71 .9 -2 2 -.29 1.1&#xA;-1.19 2 -2 2 -.81 0 -1.71 .9 -2 2 -.29 1.11 -1.36 2 -2.41 2 -1.22 0 -1.88&#xA;.71 -1.88 2 0 1.55 -.67 2 -2.94 2 -1.7 0 -3.5 .77 -4.25 1.82 -.72 1 -2.09&#xA;2.11 -3.06 2.47 -.96 .36 -1.75 1.34 -1.75 2.18 0 1.09 -1.03 1.53 -3.59 1.53&#xA;-2.75 0 -3.72 .47 -4.12 2 -.36 1.39 -1.36 2 -3.28 2 -4.68 0 -9.01 1.19&#xA;-9.01 2.48 0 .87 -3.7 1.43 -12.66 1.93 -6.96 .39 -18.55 .39 -25.75 -0&#xA;-11.11 -.6 -13.29 -.99 -14.4 -2.56 -.72 -1.02 -2.41 -1.85 -3.75 -1.85 -1.34&#xA;0 -3.34 -.9 -4.44 -2 -1.1 -1.1 -3.12 -2 -4.5 -2 -1.5 0 -2.5 -.57 -2.5 -1.43&#xA;0 -.79 -.84 -1.7 -1.87 -2.02 -2.2 -.7 -17.43 -16.25 -18.4 -18.79 -.37 -.96&#xA;-1.36 -1.75 -2.2 -1.75 -.96 0 -1.53 -.92 -1.53 -2.47 0 -1.36 -.86 -4.4&#xA;-1.91 -6.75 -1.05 -2.35 -2.48 -6.3 -3.17 -8.78 -.7 -2.48 -1.64 -4.93 -2.09&#xA;-5.45 -.45 -.52 -.83 -9.7 -.83 -20.39 0 -16.08 .26 -19.63 1.49 -20.55 .82&#xA;-.61 1.79 -3.32 2.16 -6.02 .37 -2.7 1.49 -5.74 2.51 -6.75 1.01 -1.01 1.84&#xA;-2.74 1.84 -3.84 0 -1.1 .9 -2.9 2 -4 1.1 -1.1 2 -3.12 2 -4.5 0 -1.56 .57&#xA;-2.5 1.5 -2.5 .83 0 1.5 -.42 1.5 -.93 0 -.51 .57 -1.52 1.26 -2.25 3.51&#xA;-3.67 7.74 -9.79 7.74 -11.22 0 -.94 .83 -1.61 2 -1.61 1.29 0 2 -.67 2 -1.88&#xA;0 -1.24 .93 -2.06 2.75 -2.43 1.51 -.31 4.4 -2.05 6.41 -3.88 2.01 -1.82 6.17&#xA;-4.65 9.25 -6.28 3.08 -1.63 5.59 -3.54 5.59 -4.25 0 -.74 1.18 -1.29 2.79&#xA;-1.29 1.53 0 4.45 -.85 6.48 -1.88 2.03 -1.04 5.69 -2.18 8.13 -2.55 2.44&#xA;-.37 4.98 -1.32 5.64 -2.12 .96 -1.15 4.39 -1.45 16.75 -1.45 12.9 0 15.85&#xA;.27 17.33 1.61z m283.27 -.09 c.62 .84 3.45 1.79 6.36 2.14 3.21 .38 5.25&#xA;1.11 5.25 1.88 0 1.48 2.22 2.47 5.58 2.47 1.75 0 2.42 .55 2.42 2 0 1.33 .67&#xA;2 2 2 1.33 0 2 .67 2 2 0 1.33 .67 2 2 2 1.16 0 2 .67 2 1.59 0 .88 .9 1.83 2&#xA;2.12 1.26 .33 2 1.36 2 2.78 0 1.24 .63 2.79 1.4 3.43 1.68 1.39 6.19 10.45&#xA;7.14 14.34 .37 1.52 1.28 3.1 2.02 3.51 .95 .53 1.39 3.44 1.51 10.03 .09 5.1&#xA;-.15 9.6 -.54 9.99 -.39 .39 -25.53 .75 -55.87 .8 -30.34 .05 -56.22 .43&#xA;-57.51 .85 -2.33 .75 -2.34 .81 -2 14.91 .27 11.01 .73 14.91 2.09 17.56 .96&#xA;1.87 1.75 4.23 1.75 5.25 0 1.02 .9 2.75 2 3.85 1.1 1.1 2 3.1 2 4.44 0 1.34&#xA;.83 3.03 1.84 3.75 1.01 .72 2.15 2.56 2.53 4.09 .92 3.72 14.11 16.72 16.97&#xA;16.72 1.2 0 2.74 .9 3.43 2 .74 1.19 2.33 2 3.91 2 1.46 0 3.53 .79 4.6 1.75&#xA;1.57 1.42 4.25 1.82 14.11 2.1 11.93 .34 20.61 -.88 20.61 -2.89 0 -.53 1.35&#xA;-.96 2.99 -.96 1.91 0 3.44 -.72 4.24 -2 .75 -1.2 2.33 -2 3.95 -2 1.49 0&#xA;3.29 -.83 4.01 -1.84 .72 -1.01 2.44 -2.12 3.82 -2.46 1.38 -.34 4.2 -2.17&#xA;6.27 -4.06 2.07 -1.89 4.42 -3.7 5.24 -4.01 .82 -.31 1.48 -1.21 1.48 -1.98 0&#xA;-.78 .9 -1.65 2 -1.94 1.1 -.29 2 -1.24 2 -2.12 0 -.93 .84 -1.59 2 -1.59&#xA;1.33 0 2 -.67 2 -2 0 -1.67 .67 -2 4 -2 l4 0 0 4 c0 2.52 -.46 4.01 -1.25&#xA;4.03 -1.42 .04 -6.75 8.35 -6.75 10.53 0 .79 -.9 1.44 -2 1.44 -1.33 0 -2 .67&#xA;-2 2 0 1.33 -.67 2 -2 2 -1.33 0 -2 .67 -2 2 0 1.33 -.67 2 -2 2 -1.33 0 -2&#xA;.67 -2 2 0 1.41 -.67 2 -2.25 2 -1.24 0 -4.22 1.8 -6.63 4 -2.41 2.2 -4.99 4&#xA;-5.75 4 -.76 0 -1.37 .9 -1.37 2 0 1.55 -.67 2 -2.99 2 -1.91 0 -3.44 .72&#xA;-4.24 2 -.69 1.1 -2.27 2 -3.51 2 -1.24 0 -3.1 .84 -4.12 1.86 -1.02 1.02&#xA;-3.5 2.17 -5.5 2.55 -2.01 .38 -3.64 1.28 -3.64 2.01 0 .98 -2.9 1.51 -11.04&#xA;2.04 -14.33 .93 -27.41 -.15 -31.41 -2.59 -1.68 -1.02 -4.52 -1.86 -6.3 -1.87&#xA;-2.25 -0 -3.25 -.47 -3.25 -1.54 0 -.84 -.79 -1.82 -1.75 -2.17 -.96 -.35&#xA;-7.26 -6.15 -14 -12.89 -7.01 -7.02 -12.25 -13.06 -12.25 -14.14 0 -1.04 -.9&#xA;-2.85 -2 -4.03 -1.1 -1.18 -2 -3.07 -2 -4.19 0 -1.12 -.83 -2.87 -1.84 -3.88&#xA;-1.23 -1.23 -2.14 -4.3 -2.73 -9.25 -1.13 -9.43 -1.12 -29.09 .01 -39.32 .61&#xA;-5.46 1.45 -8.48 2.72 -9.75 1.01 -1.01 1.84 -2.63 1.84 -3.59 0 -1.87 3.58&#xA;-9.4 6.33 -13.32 .91 -1.3 1.66 -3.17 1.66 -4.15 0 -.98 .37 -1.78 .83 -1.78&#xA;1.25 0 7.17 -8.6 7.17 -10.41 0 -.92 .84 -1.59 2 -1.59 1.33 0 2 -.67 2 -2 0&#xA;-1.33 .67 -2 2 -2 1.33 0 2 -.67 2 -2 0 -1.13 .67 -2 1.54 -2 1.69 0 14.46&#xA;-9.87 14.46 -11.18 0 -.45 1.35 -.82 2.99 -.82 1.91 0 3.44 -.72 4.24 -2 .77&#xA;-1.24 2.39 -2.03 4.26 -2.08 1.66 -.04 5.26 -.89 8.01 -1.88 3.77 -1.36 8.28&#xA;-1.83 18.39 -1.92 10.92 -.1 13.59 .16 14.5 1.39z m173.11 .07 c1.34 .88 5.15&#xA;1.84 8.46 2.14 3.32 .3 6.04 .89 6.04 1.31 0 1 5.68 2.96 8.59 2.96 1.28 0&#xA;4.29 1.82 6.85 4.15 l4.56 4.15 0 17.85 c0 11.23 -.37 17.85 -1 17.85 -.55 0&#xA;-1 1.49 -1 3.3 0 1.81 -.54 3.84 -1.2 4.5 -1.26 1.26 -6.79 1.58 -10.42 .6&#xA;-1.7 -.46 -2.24 -1.6 -2.73 -5.74 -.34 -2.85 -1.29 -5.67 -2.13 -6.28 -.93&#xA;-.68 -1.52 -2.7 -1.52 -5.25 0 -2.81 -.64 -4.78 -2 -6.14 -1.1 -1.1 -2 -2.59&#xA;-2 -3.32 0 -.73 -1.61 -3.2 -3.58 -5.5 -2.37 -2.77 -4.39 -4.18 -6 -4.18&#xA;-1.76 0 -2.42 -.55 -2.42 -2 0 -1.11 -.67 -2 -1.5 -2 -.82 0 -2.4 -.9 -3.5 -2&#xA;-1.4 -1.4 -3.33 -2 -6.42 -2 -2.64 0 -4.58 -.5 -4.83 -1.25 -.28 -.84 -3.4&#xA;-1.36 -9.58 -1.6 -7.68 -.29 -9.26 -.09 -9.77 1.25 -.43 1.12 -1.9 1.6 -4.92&#xA;1.6 -2.37 0 -5.02 .27 -5.89 .61 -.87 .33 -1.58 1.23 -1.58 2 0 .81 -1.02&#xA;1.39 -2.42 1.39 -1.66 0 -4.65 2.2 -9.47 6.97 -3.88 3.83 -7.36 8.22 -7.74&#xA;9.75 -.38 1.53 -1.52 3.37 -2.53 4.09 -1.01 .72 -1.84 2.47 -1.84 3.89 0 1.42&#xA;-.76 3.14 -1.69 3.82 -1.22 .89 -1.82 3.17 -2.13 8.1 -.3 4.78 -.93 7.22&#xA;-2.06 8.05 -1.38 1.02 -1.57 3.17 -1.32 14.51 .22 9.52 .72 13.95 1.75 15.54&#xA;.8 1.22 1.45 4.03 1.45 6.25 0 2.7 .66 4.7 2 6.04 1.1 1.1 2 3.26 2 4.8 0&#xA;2.99 5.27 12.2 6.98 12.2 .56 0 1.02 .72 1.02 1.59 0 .88 .86 1.82 1.91 2.09&#xA;1.05 .27 2.13 1.36 2.41 2.41 .27 1.05 1.22 1.91 2.09 1.91 .88 0 1.59 .46&#xA;1.59 1.02 0 .56 2.11 2.36 4.7 4 2.58 1.64 6.02 2.98 7.64 2.98 1.65 0 3.51&#xA;.77 4.22 1.75 1.11 1.52 3.11 1.75 15.44 1.75 12.33 0 14.33 -.23 15.44 -1.75&#xA;.72 -.98 2.58 -1.75 4.22 -1.75 1.62 0 5.06 -1.34 7.64 -2.98 2.58 -1.64 4.7&#xA;-3.44 4.7 -4 0 -.56 1.01 -1.02 2.25 -1.02 1.24 0 4.17 -1.75 6.52 -3.9 2.35&#xA;-2.14 4.93 -4.16 5.75 -4.47 .82 -.31 1.48 -1.21 1.48 -1.98 0 -.78 .9 -1.65&#xA;2 -1.94 1.1 -.29 2 -1.24 2 -2.12 0 -.93 .84 -1.59 2 -1.59 1.29 0 2 -.67 2&#xA;-1.89 0 -1.36 .91 -2.02 3.25 -2.38 1.79 -.27 3.59 -.3 4 -.05 .41 .24 .75&#xA;3.11 .75 6.38 0 5.27 -.22 5.94 -2 5.94 -1.33 0 -2 .67 -2 2 0 1.16 -.67 2&#xA;-1.59 2 -.88 0 -1.83 .9 -2.12 2 -.29 1.1 -1.19 2 -2 2 -.81 0 -1.71 .9 -2 2&#xA;-.29 1.1 -1.19 2 -2 2 -.81 0 -1.71 .9 -2 2 -.29 1.1 -1.19 2 -2 2 -.81 0&#xA;-1.71 .9 -2 2 -.29 1.1 -1.19 2 -2 2 -.81 0 -1.71 .9 -2 2 -.29 1.11 -1.36 2&#xA;-2.41 2 -1.22 0 -1.88 .71 -1.88 2 0 1.47 -.67 2 -2.5 2 -1.38 0 -3.32 .82&#xA;-4.33 1.83 -1 1 -2.58 2.12 -3.5 2.47 -.92 .35 -1.67 1.33 -1.67 2.17 0 1.03&#xA;-.97 1.53 -2.99 1.53 -1.91 0 -3.44 .72 -4.24 2 -.85 1.35 -2.33 2 -4.6 2&#xA;-2.43 0 -3.49 .51 -3.84 1.87 -.43 1.63 -1.93 1.96 -11.88 2.57 -6.27 .39&#xA;-15.03 .38 -19.47 -0 -4.6 -.4 -9.65 -1.51 -11.74 -2.57 -2.01 -1.03 -4.92&#xA;-1.87 -6.45 -1.87 -1.83 0 -2.79 -.52 -2.79 -1.52 0 -.84 -1.03 -1.92 -2.29&#xA;-2.4 -1.26 -.48 -2.89 -1.59 -3.62 -2.48 -.73 -.88 -2.4 -1.6 -3.71 -1.6&#xA;-1.47 0 -2.38 -.59 -2.38 -1.53 0 -.84 -.7 -1.8 -1.55 -2.12 -2 -.77 -10.03&#xA;-8.79 -10.8 -10.8 -.33 -.85 -1.28 -1.55 -2.12 -1.55 -.93 0 -1.53 -.9 -1.53&#xA;-2.31 0 -1.27 -.9 -3.28 -2 -4.46 -1.1 -1.18 -2 -3.07 -2 -4.19 0 -1.12 -.83&#xA;-2.87 -1.84 -3.89 -1.77 -1.77 -2.22 -4.03 -3.83 -19.41 -.33 -3.16 -.99&#xA;-5.75 -1.46 -5.75 -.47 0 -.86 -1.8 -.86 -4 0 -2.2 .4 -4 .89 -4 .49 0 1.15&#xA;-3.26 1.47 -7.25 1.44 -17.94 1.87 -20.75 3.21 -20.75 .75 0 1.64 -1.63 2.04&#xA;-3.72 .38 -2.05 1.33 -4.35 2.09 -5.12 .77 -.77 1.65 -2.69 1.97 -4.28 .32&#xA;-1.58 .94 -2.88 1.38 -2.88 .92 0 6.95 -8.65 6.95 -9.98 0 -1.27 16.2 -17.5&#xA;18.26 -18.29 .96 -.37 1.74 -1.36 1.74 -2.2 0 -.84 .71 -1.53 1.57 -1.53 1.94&#xA;0 10.43 -5.74 10.43 -7.05 0 -.52 1.15 -.95 2.55 -.95 1.4 0 3.99 -.75 5.75&#xA;-1.67 1.76 -.92 7.03 -2.66 11.7 -3.88 6.49 -1.68 11.64 -2.23 21.79 -2.33&#xA;10.62 -.1 13.77 .2 15.71 1.47z M1856.19 328.67 c-1.82 .26 -3.55 1.11 -3.86&#xA;1.9 -.33 .86 -1.93 1.43 -4.04 1.43 -2.65 0 -3.61 .48 -4.01 2 -.37 1.41&#xA;-1.36 2 -3.4 2 -1.79 0 -3.35 .75 -4.12 2 -.69 1.1 -1.83 2 -2.54 2 -.71 0&#xA;-1.58 .75 -1.93 1.67 -.35 .92 -1.46 2.5 -2.47 3.5 -1 1 -1.83 2.9 -1.83 4.21&#xA;0 1.54 -.71 2.57 -2 2.91 -1.46 .38 -2 1.36 -2 3.62 0 1.76 -.86 3.96 -2 5.09&#xA;-1.58 1.58 -2 3.33 -2 8.39 0 4.76 -.38 6.54 -1.5 6.97 -1.19 .46 -1.5 2.59&#xA;-1.5 10.42 0 7.1 .41 10.38 1.47 11.78 .81 1.07 1.48 3.98 1.5 6.48 .02 2.5&#xA;.93 6.3 2.03 8.46 1.1 2.16 2 4.73 2 5.71 0 .98 .9 2.69 2 3.79 1.1 1.1 2 2.9&#xA;2 4 0 1.1 .82 2.82 1.83 3.83 1 1 2.12 2.58 2.47 3.5 .35 .92 1.33 1.67 2.17&#xA;1.67 .86 0 1.53 .87 1.53 2 0 1.33 .67 2 2 2 1.26 0 2 .67 2 1.79 0 2.27 8&#xA;10.21 10.29 10.21 .94 0 1.71 .69 1.71 1.53 0 .84 .79 1.82 1.75 2.17 .96 .35&#xA;2.82 1.46 4.13 2.47 1.31 1.01 3.22 1.83 4.25 1.83 1.03 0 1.87 .39 1.87 .87&#xA;0 .48 1.94 1.41 4.31 2.08 2.77 .77 9.61 1.09 19.08 .88 12.68 -.28 14.95&#xA;-.58 16.05 -2.08 .7 -.96 2.17 -1.75 3.26 -1.75 1.09 -0 2.79 -.89 3.77 -1.97&#xA;.98 -1.09 2.63 -2.24 3.65 -2.57 1.03 -.33 1.87 -1.19 1.87 -1.91 0 -.72 .9&#xA;-1.55 2 -1.84 1.1 -.29 2 -1.24 2 -2.12 0 -.88 .46 -1.59 1.02 -1.59 .56 0&#xA;2.36 -2.11 4 -4.7 1.64 -2.58 2.98 -6.02 2.98 -7.64 0 -1.62 .74 -3.48 1.64&#xA;-4.14 1.22 -.89 2.03 -4.67 3.19 -14.93 1.24 -10.92 1.31 -14.13 .36 -15.65&#xA;-.66 -1.05 -1.19 -4.19 -1.19 -6.98 0 -5.56 -1.8 -13.96 -2.99 -13.96 -.41 0&#xA;-1.04 -1.8 -1.39 -4 -.41 -2.59 -1.16 -4 -2.13 -4 -.99 0 -1.49 -1.01 -1.49&#xA;-2.99 0 -1.91 -.72 -3.44 -2 -4.24 -1.1 -.69 -2 -1.89 -2 -2.66 0 -1.73 -4.2&#xA;-7.51 -8.49 -11.69 -1.74 -1.7 -3.46 -3.84 -3.81 -4.75 -.35 -.91 -1.04 -1.66&#xA;-1.54 -1.66 -.5 0 -2.87 -1.8 -5.28 -4 -2.41 -2.2 -5.16 -4 -6.13 -4 -.96 0&#xA;-2.65 -.9 -3.75 -2 -1.1 -1.1 -2.83 -2 -3.85 -2 -1.02 0 -3.34 -.75 -5.18&#xA;-1.66 -2.26 -1.13 -6.4 -1.74 -12.9 -1.9 -5.27 -.13 -11.06 -.03 -12.88 .23z&#xA;M2154.25 325.69 c-1.24 .25 -2.25 .87 -2.25 1.38 0 .51 -2.52 .93 -5.59 .93&#xA;-4.75 0 -5.67 .3 -6.12 2 -.33 1.27 -1.36 2 -2.82 2 -3.34 0 -5.47 1.01 -5.47&#xA;2.61 0 .77 -.72 1.39 -1.59 1.39 -.88 0 -1.83 .9 -2.12 2 -.29 1.1 -1.16 2&#xA;-1.94 2 -.78 0 -1.72 .79 -2.08 1.75 -.37 .96 -1.48 2.62 -2.47 3.69 -.99&#xA;1.07 -1.8 2.75 -1.8 3.75 0 1 -.83 2.64 -1.85 3.66 -2.36 2.36 -3.67 9.83&#xA;-2.06 11.76 .95 1.14 7.92 1.39 38.92 1.39 34.49 0 37.95 -.15 39.91 -1.75&#xA;1.96 -1.61 2.06 -2.19 1.13 -7.04 -1 -5.24 -4.18 -11.68 -8.86 -17.96 -1.55&#xA;-2.08 -3.28 -3.25 -4.81 -3.25 -1.71 0 -2.38 -.56 -2.38 -2 0 -1.24 -.67 -2&#xA;-1.76 -2 -.97 0 -2.32 -.9 -3.01 -2 -.78 -1.26 -2.33 -2 -4.16 -2 -1.6 0&#xA;-3.06 -.39 -3.24 -.87 -.4 -1.03 -10.37 -2.09 -13.58 -1.45z" fill="#026db2" fill-rule="evenodd" stroke="#026db2" stroke-linejoin="round" stroke-width="0.80"/>
<path d="M272.64 102.5 c-.82 .83 -2.65 1.5 -4.06 1.5 -1.48 0 -3.09 .85 -3.81 2 -.69&#xA;1.1 -2.27 2 -3.51 2 -1.24 0 -3.08 .82 -4.09 1.83 -1 1 -2.58 2.12 -3.5 2.47&#xA;-.92 .35 -1.67 1.33 -1.67 2.17 0 1.03 -.97 1.53 -2.99 1.53 -1.91 0 -3.44&#xA;.72 -4.24 2 -.69 1.1 -2.27 2 -3.51 2 -1.24 0 -3.08 .82 -4.09 1.83 -1 1&#xA;-2.58 2.12 -3.5 2.47 -.92 .35 -1.67 1.33 -1.67 2.17 0 .86 -.75 1.41 -1.88&#xA;1.41 -1.1 0 -2.12 .59 -2.12 1.31 0 .72 1.69 2.42 3.75 3.62 2.06 1.2 5.04&#xA;3.25 6.61 4.56 l2.86 2.38 -2.61 4.46 c-3.09 5.28 -3.48 9.09 -.86 8.6 .96&#xA;-.18 1.98 -1.45 2.16 -2.68 .18 -1.23 .71 -2.14 1.55 -2.14 .84 0 1.95 -.83&#xA;2.21 -1.84 .57 -2.19 28.64 -30.15 30.26 -30.15 .61 0 1.54 -1.12 2.07 -2.5&#xA;.52 -1.38 1.58 -2.5 2.36 -2.5 .77 0 1.65 -.91 1.94 -2.03 .34 -1.28 -.39&#xA;-3.11 -1.97 -5 -1.38 -1.64 -2.88 -2.97 -3.34 -2.97 -.46 0 -1.51 .67 -2.34&#xA;1.5z M468 203.62 c-2.54 2.29 -4 4.49 -4 6 0 1.37 -.59 2.38 -1.39 2.38 -1.61&#xA;0 -2.61 2.13 -2.61 5.58 0 1.33 -.41 2.42 -.92 2.42 -.51 0 -1.23 1.43 -1.62&#xA;3.18 -.52 2.36 -.28 3.48 .92 4.36 .98 .71 1.62 2.62 1.62 4.82 0 2.77 .86&#xA;4.59 3.62 7.64 2.29 2.54 4.49 4 6 4 1.31 0 2.38 .45 2.38 1 0 .55 1.55 1&#xA;3.44 1 1.89 0 3.72 -.45 4.06 -1 .34 -.55 1.74 -1 3.11 -1 1.6 0 3.72 -1.34&#xA;5.94 -3.75 1.89 -2.06 3.45 -4.76 3.45 -6 0 -1.24 .62 -2.25 1.38 -2.25 .76 0&#xA;1.66 -1.41 2 -3.12 1.1 -5.52 .67 -17.84 -.75 -21.24 -.76 -1.81 -2.62 -4.28&#xA;-4.13 -5.47 -2.3 -1.81 -4.07 -2.17 -10.62 -2.17 -7.63 0 -7.98 .11 -11.87&#xA;3.62z M708.29 202 c-.29 1.1 -1.19 2 -2 2 -.81 0 -1.7 .86 -1.98 1.91 -.27&#xA;1.05 -1.36 2.13 -2.41 2.41 -1.43 .37 -1.91 1.4 -1.91 4.09 0 2.51 -.45 3.59&#xA;-1.48 3.59 -.81 0 -1.77 1.14 -2.11 2.53 -.35 1.39 -.44 5.49 -.21 9.12 .27&#xA;4.31 .94 6.99 1.93 7.72 .83 .62 1.8 1.92 2.16 2.88 .36 .96 1.29 1.75 2.07&#xA;1.75 .78 0 1.65 .9 1.94 2 .4 1.53 1.36 2 4.12 2 1.98 0 3.59 .45 3.59 1 0&#xA;1.53 5.32 1.19 8.85 -.57 1.73 -.87 3.15 -2.22 3.15 -3 0 -.78 .69 -1.43 1.53&#xA;-1.43 .84 0 1.82 -.75 2.17 -1.67 .35 -.92 1.46 -2.5 2.47 -3.5 1 -1 1.83&#xA;-2.91 1.83 -4.24 0 -1.33 .53 -2.59 1.17 -2.81 1.69 -.56 2.28 -11.89 .84&#xA;-16.25 -.67 -2.03 -2.84 -5.45 -4.82 -7.61 l-3.61 -3.92 -8.38 0 c-7.54 0&#xA;-8.44 .2 -8.91 2z M580.5 263.15 c-2.91 1.59 -4.5 3.9 -4.5 6.54 0 1.41 -.6&#xA;2.31 -1.53 2.31 -.84 0 -1.82 .79 -2.17 1.75 -.35 .96 -1.46 2.82 -2.47 4.13&#xA;-1.01 1.31 -1.83 3.22 -1.83 4.25 0 1.03 -.67 1.87 -1.5 1.87 -.83 0 -1.5 .47&#xA;-1.5 1.04 0 .57 -2.02 3.21 -4.5 5.85 -2.48 2.65 -4.5 5.78 -4.5 6.96 0 1.57&#xA;-.61 2.15 -2.29 2.15 -3.1 0 -11.49 8.62 -12.29 12.62 -.51 2.54 -.05 3.74&#xA;2.54 6.69 1.74 1.98 4.14 3.91 5.35 4.29 1.2 .38 4.1 2.68 6.44 5.12 l4.25&#xA;4.43 0 54.3 c0 29.87 .28 55.71 .62 57.43 .34 1.72 1.24 3.12 2 3.12 .96 0&#xA;1.38 1.35 1.38 4.5 0 3.17 .59 5.09 2 6.5 1.1 1.1 2 2.62 2 3.37 0 1.8 8.52&#xA;9.63 10.48 9.63 .84 0 1.52 .4 1.52 .88 0 .48 1.32 1.42 2.92 2.09 2.01 .83&#xA;7.99 1.1 19.08 .87 13.99 -.29 16.33 -.57 17.44 -2.09 .71 -.97 2.57 -1.75&#xA;4.17 -1.75 1.59 -0 4.46 -.94 6.39 -2.08 4.54 -2.69 12 -10.67 12 -12.83 0&#xA;-.93 -.54 -2.22 -1.2 -2.88 -.66 -.66 -2.66 -1.2 -4.45 -1.2 -2.01 0 -3.61&#xA;.64 -4.19 1.69 -.82 1.46 -2.95 1.69 -15.8 1.75 -14.12 .06 -14.97 -.05&#xA;-17.11 -2.19 -1.24 -1.24 -3.38 -2.25 -4.75 -2.25 -2 0 -2.5 -.5 -2.5 -2.5 0&#xA;-1.38 -.95 -3.45 -2.11 -4.61 -2.06 -2.06 -2.12 -3.11 -2.64 -41.75 -.29&#xA;-21.8 -.19 -48.48 .22 -59.28 l.74 -19.64 2.64 -1.23 c1.45 -.68 3.43 -1.63&#xA;4.38 -2.11 .96 -.49 8.91 -.88 17.67 -.88 8.76 0 16.64 -.27 17.51 -.61 .87&#xA;-.33 1.58 -1.01 1.58 -1.5 0 -.49 .9 -1.79 2 -2.89 1.1 -1.1 2 -3.09 2 -4.42&#xA;0 -1.33 .45 -2.57 1.01 -2.75 1.52 -.51 2.03 -4.68 .68 -5.56 -.65 -.42 -11.3&#xA;-1 -23.66 -1.27 l-22.47 -.5 -1.03 -3.67 c-.57 -2.02 -1.37 -4 -1.78 -4.42&#xA;-.41 -.41 -.75 -6.97 -.75 -14.58 0 -13.17 -.1 -13.83 -2 -13.83 -1.1 0 -2&#xA;-.45 -2 -1 0 -.55 -.34 -.99 -.75 -.97 -.41 .02 -1.65 .52 -2.75 1.12z M805.2&#xA;294.2 c-.66 .66 -1.2 2.01 -1.2 3 0 .99 -.9 2.7 -2 3.8 -1.36 1.36 -2 3.33 -2&#xA;6.14 0 2.64 -.58 4.56 -1.6 5.31 -.92 .67 -1.84 3.27 -2.16 6.11 -.31 2.72&#xA;-1.21 5.42 -2 6 -.79 .58 -1.69 3.28 -1.98 6 -.3 2.72 -1.12 5.28 -1.84 5.71&#xA;-.71 .42 -1.58 2.9 -1.92 5.5 -.34 2.6 -1.29 5.98 -2.12 7.5 -.83 1.52 -1.22&#xA;3.66 -.88 4.75 .46 1.46 1.52 1.99 3.98 1.99 2.83 0 4.21 -.95 8.93 -6.17&#xA;3.07 -3.39 5.58 -6.99 5.58 -8 0 -1.25 .74 -1.83 2.35 -1.83 1.29 0 3.1 -.83&#xA;4.01 -1.84 .92 -1.01 4.13 -2.39 7.14 -3.07 3.01 -.67 5.73 -1.64 6.05 -2.16&#xA;.33 -.54 11.29 -.93 25.82 -.93 27.2 0 30.62 .53 30.63 4.75 0 1.24 -.89 3.15&#xA;-1.99 4.25 -1.1 1.1 -2 3.12 -2 4.5 0 1.83 -.53 2.5 -2 2.5 -1.33 0 -2 .67 -2&#xA;2 0 1.11 -.67 2 -1.5 2 -.83 0 -1.5 .38 -1.5 .84 0 .46 -1.12 2.15 -2.5 3.75&#xA;-1.37 1.6 -2.5 3.92 -2.5 5.16 -0 1.58 -.59 2.25 -2 2.25 -1.33 0 -2 .67 -2 2&#xA;0 1.13 -.67 2 -1.53 2 -.84 0 -1.79 .67 -2.1 1.48 -.31 .82 -2.32 3.35 -4.47&#xA;5.62 -2.28 2.42 -3.9 5.13 -3.9 6.52 0 1.71 -.56 2.38 -2 2.38 -1.33 0 -2 .67&#xA;-2 2 0 1.13 -.67 2 -1.53 2 -.84 0 -1.82 .75 -2.17 1.67 -.35 .92 -1.46 2.5&#xA;-2.47 3.5 -1 1 -1.83 2.95 -1.83 4.33 0 1.83 -.53 2.5 -2 2.5 -1.33 0 -2 .67&#xA;-2 2 0 1.33 -.67 2 -2 2 -1.33 0 -2 .67 -2 2 0 1.11 -.67 2 -1.5 2 -.83 0&#xA;-1.5 .36 -1.5 .79 0 .44 -2.02 3.02 -4.5 5.75 -2.52 2.78 -4.5 5.95 -4.5 7.21&#xA;-0 1.35 -.62 2.25 -1.54 2.25 -.84 0 -1.77 .63 -2.07 1.4 -.3 .77 -3.21 4.22&#xA;-6.47 7.67 -3.75 3.96 -5.93 7.13 -5.93 8.6 0 1.46 -.59 2.33 -1.59 2.33 -.88&#xA;0 -1.83 .9 -2.12 2 -.29 1.1 -1.15 2 -1.91 2 -.76 0 -1.38 .38 -1.38 .84 0&#xA;.46 -1.12 2.15 -2.5 3.75 -1.37 1.6 -2.5 3.92 -2.5 5.16 -0 1.39 -.61 2.25&#xA;-1.59 2.25 -.88 0 -1.83 .9 -2.12 2 -.29 1.1 -1.1 2 -1.8 2 -1.51 0 -2.49&#xA;2.21 -2.49 5.58 0 1.66 .56 2.42 1.8 2.42 .99 0 2.34 .54 2.99 1.19 .87 .87&#xA;14.38 1.43 49.45 2.06 39.54 .71 48.85 1.14 51.56 2.38 1.82 .83 4.85 1.76&#xA;6.75 2.07 3.37 .55 3.45 .67 3.45 5.29 0 3.28 .64 5.55 2.07 7.37 1.28 1.62&#xA;3.06 2.63 4.64 2.63 2.77 -0 5.2 -2.43 5.26 -5.25 .02 -.96 .44 -1.75 .93&#xA;-1.75 1.14 0 3.1 -5.52 3.1 -8.72 0 -1.33 .65 -3.07 1.44 -3.86 .79 -.79 1.74&#xA;-3.47 2.12 -5.94 .37 -2.48 1.52 -6.17 2.56 -8.2 1.04 -2.03 1.88 -4.95 1.88&#xA;-6.48 0 -1.53 .38 -2.79 .84 -2.79 .99 0 3.16 -6.78 3.16 -9.87 0 -1.17 .45&#xA;-2.13 1 -2.13 .55 0 1 -.83 1 -1.84 0 -2.12 -5.21 -5.03 -5.81 -3.24 -.2 .59&#xA;-1.45 1.08 -2.78 1.08 -1.33 0 -3.32 .9 -4.42 2 -1.1 1.1 -3.1 2 -4.44 2&#xA;-1.37 0 -3.11 .95 -3.96 2.17 -1.5 2.15 -1.91 2.17 -40.37 2.63 -27.76 .33&#xA;-39.46 .14 -40.96 -.66 -2.01 -1.08 -2.04 -1.27 -.52 -4.38 .87 -1.79 3.31&#xA;-5.16 5.43 -7.48 2.11 -2.33 3.84 -5.14 3.84 -6.25 0 -1.15 .66 -2.02 1.53&#xA;-2.02 .84 0 1.82 -.75 2.17 -1.66 .35 -.91 2.07 -3.05 3.82 -4.75 4.26 -4.13&#xA;12.48 -14.42 12.48 -15.63 0 -.53 1.5 -2.42 3.34 -4.21 4.65 -4.53 8.66&#xA;-10.13 8.66 -12.09 0 -.91 .69 -1.66 1.53 -1.66 .84 0 1.77 -.63 2.07 -1.4 .3&#xA;-.77 3.21 -4.22 6.47 -7.67 3.75 -3.96 5.93 -7.13 5.93 -8.6 0 -1.66 .57&#xA;-2.33 2 -2.33 1.29 0 2 -.67 2 -1.88 0 -1.04 .89 -2.12 2 -2.41 1.1 -.29 2&#xA;-1.24 2 -2.12 0 -.88 .37 -1.59 .83 -1.59 1.36 0 11.17 -12.63 11.17 -14.38 0&#xA;-.89 .69 -1.62 1.53 -1.62 .84 0 1.79 -.67 2.1 -1.48 .31 -.82 2.32 -3.4 4.47&#xA;-5.75 2.14 -2.35 3.9 -5.28 3.9 -6.52 0 -1.39 .61 -2.25 1.59 -2.25 .88 0&#xA;1.83 -.9 2.12 -2 .29 -1.1 .9 -2 1.36 -2 .46 0 1.13 -1.58 1.5 -3.5 .46 -2.46&#xA;.17 -4.25 -.98 -6 -1.61 -2.46 -1.82 -2.5 -15.45 -2.5 -7.6 0 -14.15 -.34&#xA;-14.56 -.75 -.41 -.41 -3.08 -.8 -5.92 -.86 -2.84 -.06 -16.87 -.69 -31.17&#xA;-1.4 -17.48 -.87 -26.33 -1.68 -27 -2.49 -.55 -.66 -2.58 -2.25 -4.5 -3.55&#xA;-1.92 -1.3 -3.73 -2.69 -4.02 -3.09 -.64 -.91 -5.66 -2.86 -7.34 -2.86 -.68 0&#xA;-1.77 .54 -2.43 1.2z M1151.23 303.9 c-2.35 2.14 -4.93 4.16 -5.75 4.47 -.82&#xA;.31 -1.48 1.26 -1.48 2.1 0 .92 -.9 1.53 -2.25 1.53 -1.24 0 -4.22 1.8 -6.63&#xA;4 -2.41 2.2 -4.91 4 -5.55 4 -.65 0 -3.07 1.39 -5.37 3.09 -3.65 2.68 -4.2&#xA;3.58 -4.2 6.88 0 3.13 .59 4.24 3.36 6.36 1.85 1.41 4.52 2.85 5.93 3.21 1.41&#xA;.35 3.34 1.5 4.29 2.55 .95 1.05 2.73 1.91 3.94 1.91 1.9 0 2.31 .7 2.87 4.96&#xA;.36 2.73 1.32 5.62 2.13 6.43 1.25 1.25 1.47 7.79 1.47 43.04 0 23.19 -.39&#xA;41.57 -.88 41.57 -.48 0 -1.43 3.58 -2.11 7.95 -.83 5.34 -1.86 8.51 -3.12&#xA;9.65 -1.04 .94 -1.89 2.76 -1.89 4.05 0 1.81 -.55 2.35 -2.42 2.35 -3.45 -0&#xA;-5.58 .99 -5.58 2.61 0 .77 -.9 1.39 -2 1.39 -1.67 0 -2 .67 -2 4.02 0 3.4 .4&#xA;4.18 2.57 5 3.24 1.23 7.75 1.26 8.98 .05 .52 -.51 14.23 -1.39 30.45 -1.96&#xA;16.22 -.57 30.51 -1.33 31.75 -1.69 1.88 -.55 2.25 -1.36 2.25 -4.88 0 -2.9&#xA;-.6 -4.77 -1.93 -5.97 -1.18 -1.07 -4.28 -1.96 -8 -2.29 -3.91 -.35 -6.07 -1&#xA;-6.07 -1.8 0 -1.48 -2.22 -2.47 -5.58 -2.47 -1.55 -0 -2.42 -.57 -2.42 -1.6 0&#xA;-.88 -.96 -2.94 -2.13 -4.59 -1.77 -2.49 -2.29 -5.25 -3.04 -16.25 -1 -14.61&#xA;-.51 -75.87 .66 -81.82 .54 -2.75 1.24 -3.75 2.63 -3.75 1.22 0 1.89 -.71&#xA;1.89 -2 0 -1.16 .67 -2 1.59 -2 .88 0 1.83 -.9 2.12 -2 .29 -1.1 1.31 -2 2.27&#xA;-2 .96 0 2.82 -.84 4.13 -1.86 1.31 -1.02 3.51 -2.2 4.88 -2.62 1.38 -.42&#xA;3.33 -1.48 4.34 -2.38 1.52 -1.33 4.43 -1.62 16.52 -1.63 13.72 -.01 14.87&#xA;.13 17.54 2.24 1.57 1.24 3.7 2.25 4.73 2.25 1.04 0 1.87 .71 1.87 1.59 0 .88&#xA;.9 1.83 2 2.12 1.1 .29 2 1.19 2 2 0 .81 .9 1.71 2 2 1.27 .33 2 1.36 2 2.82&#xA;0 3.23 1 5.47 2.44 5.47 .85 0 1.56 4.19 2.33 13.73 .63 7.82 1.57 13.88 2.17&#xA;14.08 .72 .24 1.06 10.64 1.06 32.27 0 18.69 -.38 31.92 -.92 31.92 -1.05 0&#xA;-3.08 8.62 -3.08 13.05 0 2.03 -.5 2.95 -1.59 2.95 -.88 0 -1.83 .9 -2.12 2&#xA;-.37 1.43 -1.36 2 -3.46 2 -1.61 0 -4.26 .69 -5.88 1.53 -2.6 1.34 -2.95 2.06&#xA;-2.95 6 l0 4.47 4.25 .13 c2.34 .07 15.78 .02 29.87 -.11 17.9 -.17 25.83 .1&#xA;26.31 .87 .83 1.34 7.57 1.49 7.57 .17 0 -.52 1.69 -1.08 3.75 -1.25 3.52&#xA;-.29 3.77 -.53 4.05 -3.95 .25 -2.95 -.2 -4.03 -2.38 -5.75 -1.49 -1.17 -4.14&#xA;-2.11 -5.95 -2.11 -1.88 0 -3.49 -.6 -3.8 -1.41 -.3 -.77 -1.92 -1.71 -3.61&#xA;-2.08 -1.69 -.37 -4.99 -2.59 -7.34 -4.94 -3.47 -3.47 -4.5 -5.38 -5.5 -10.23&#xA;-.86 -4.17 -1.23 -18.53 -1.23 -47.65 0 -23.25 -.39 -41.69 -.88 -41.69 -.48&#xA;0 -1.07 -4.11 -1.31 -9.13 -.32 -6.65 -.85 -9.43 -1.97 -10.25 -.84 -.62&#xA;-1.78 -3.35 -2.08 -6.06 -.31 -2.72 -1.2 -5.42 -1.99 -6 -.79 -.58 -1.73&#xA;-2.24 -2.09 -3.67 -.36 -1.44 -2.86 -4.92 -5.55 -7.75 -3.34 -3.51 -5.69&#xA;-5.14 -7.4 -5.14 -1.66 0 -2.67 -.67 -3.02 -2 -.4 -1.52 -1.36 -2 -4.03 -2&#xA;-1.93 0 -3.69 -.55 -3.92 -1.22 -.27 -.82 -3.84 -1.35 -10.91 -1.61 -8.67&#xA;-.32 -10.78 -.11 -12.11 1.22 -1.02 1.02 -3.32 1.61 -6.29 1.61 -2.63 0 -6.28&#xA;.83 -8.32 1.88 -2 1.03 -4.76 2.4 -6.14 3.05 -5.79 2.71 -8 4.27 -8 5.63 0&#xA;.84 -.96 1.45 -2.31 1.45 -1.27 0 -3.18 .81 -4.25 1.8 -1.07 .99 -2.73 2.1&#xA;-3.69 2.47 -.96 .37 -1.75 1.36 -1.75 2.2 0 .84 -.79 1.53 -1.75 1.54 -.96 0&#xA;-2.93 .62 -4.38 1.38 -2.4 1.25 -2.76 1.22 -4.09 -.33 -.81 -.94 -1.77 -5&#xA;-2.14 -9.08 -.38 -4.06 -1.35 -8.7 -2.16 -10.33 -.81 -1.63 -1.47 -3.56 -1.47&#xA;-4.3 0 -.92 -1.35 -1.35 -4.25 -1.35 -3.54 0 -4.96 .65 -8.52 3.9z M716.7&#xA;303.09 c-2.09 1.1 -4.03 2.61 -4.32 3.36 -.29 .74 -1.39 1.58 -2.45 1.86&#xA;-1.06 .28 -1.93 1.22 -1.93 2.1 0 .93 -.84 1.59 -2 1.59 -1.33 0 -2 .67 -2 2&#xA;0 1.63 -.67 2 -3.59 2 -2.75 0 -3.72 .47 -4.12 2 -.34 1.29 -1.36 2 -2.91 2&#xA;-1.31 0 -3.28 .9 -4.38 2 -1.1 1.1 -2.9 2 -4 2 -1.1 0 -2.82 .82 -3.83 1.83&#xA;-1 1 -2.58 2.12 -3.5 2.47 -.92 .35 -1.67 1.33 -1.67 2.17 0 .84 -.45 1.53 -1&#xA;1.53 -1.68 0 -1.13 1.69 1.59 4.92 1.57 1.87 3.54 3.08 5 3.08 1.5 0 2.41 .58&#xA;2.41 1.53 0 .84 .74 1.82 1.65 2.16 1.95 .75 7.35 6.23 7.35 7.45 0 .47 .67&#xA;.85 1.5 .85 .83 0 1.5 .89 1.5 1.99 0 2.58 1.99 11.02 3.12 13.25 1.14 2.24&#xA;1.16 72.76 .02 72.76 -.47 0 -1.42 3.48 -2.11 7.74 -1.13 7.03 -1.63 8.12&#xA;-5.39 11.83 -2.28 2.25 -4.93 4.37 -5.89 4.73 -.96 .35 -1.75 1.28 -1.75 2.06&#xA;0 .78 -.9 1.65 -2 1.94 -1.3 .34 -2 1.36 -2 2.92 0 1.32 .54 2.93 1.2 3.59&#xA;.89 .89 10.37 1.2 36.46 1.2 33.84 0 35.31 -.08 36.3 -1.93 .57 -1.06 1.04&#xA;-2.31 1.04 -2.78 0 -.46 -1.32 -2.29 -2.94 -4.07 -2.47 -2.7 -3.66 -3.22&#xA;-7.38 -3.22 -3.6 0 -4.54 -.38 -4.96 -2 -.4 -1.53 -1.36 -2 -4.12 -2 -3.09 0&#xA;-3.59 -.32 -3.59 -2.31 0 -1.27 -.93 -3.31 -2.06 -4.52 -1.78 -1.91 -2.2&#xA;-4.29 -3.08 -17.44 -.64 -9.55 -.77 -35.91 -.36 -70.73 .43 -36.39 .32 -56.39&#xA;-.34 -58.09 -1.03 -2.69 -3.8 -5.94 -4.99 -5.86 -.37 .02 -2.39 .95 -4.48&#xA;2.05z M1013.75 301.64 c-.96 .28 -1.75 .93 -1.75 1.43 0 .51 -2.02 .93 -4.5&#xA;.93 -3.17 0 -5.09 .59 -6.5 2 -1.1 1.1 -3.12 2 -4.49 2 -1.41 0 -3.03 .87&#xA;-3.74 2 -.69 1.1 -2.04 2 -3.01 2 -1.09 0 -1.76 .76 -1.76 2 0 1.42 -.67 2&#xA;-2.3 2 -2.87 0 -9.7 6.81 -9.7 9.68 0 1.25 -.8 2.3 -2 2.61 -1.1 .29 -2 1.24&#xA;-2 2.12 0 .88 -.69 1.59 -1.53 1.59 -.84 0 -1.82 .79 -2.17 1.75 -.35 .96&#xA;-1.46 2.82 -2.47 4.13 -1.01 1.31 -1.83 3.22 -1.83 4.25 0 1.03 -.41 1.87 -.9&#xA;1.87 -1.15 0 -3.1 5.53 -3.1 8.79 0 1.37 -.79 3.07 -1.75 3.77 -1.39 1.02&#xA;-1.82 3.14 -2.1 10.36 -.26 6.71 -.7 9.08 -1.68 9.08 -1.93 0 -2.83 9.21&#xA;-2.23 22.82 .38 8.62 .88 11.8 2 12.62 .98 .72 1.64 3.43 1.93 7.95 .31 4.92&#xA;.91 7.21 2.13 8.1 .93 .68 1.69 2.17 1.69 3.3 0 3.11 1.05 5.22 2.61 5.22 .81&#xA;0 1.39 1.02 1.39 2.42 0 3.37 .98 5.58 2.48 5.58 .7 0 1.54 1.34 1.86 2.98&#xA;.38 1.9 3.17 5.52 7.7 10 4.87 4.81 7.87 7.02 9.53 7.02 1.47 0 2.42 .58 2.42&#xA;1.47 0 .81 2.41 2.61 5.35 4 3.29 1.56 7.1 2.53 9.92 2.53 2.77 -0 4.74 .49&#xA;4.99 1.25 .31 .91 3.46 1.21 11.71 1.11 6.21 -.08 11.57 -.57 11.92 -1.1 .35&#xA;-.53 3.47 -1.22 6.95 -1.52 3.67 -.32 7.06 -1.22 8.08 -2.15 .97 -.87 2.8&#xA;-1.59 4.08 -1.59 3.41 0 13.02 -4.82 13.02 -6.53 0 -.9 .97 -1.47 2.5 -1.47&#xA;1.38 0 3.32 -.82 4.33 -1.83 1 -1 2.58 -2.12 3.5 -2.47 .92 -.35 1.67 -1.33&#xA;1.67 -2.17 0 -.84 .69 -1.53 1.54 -1.53 2.44 0 6.26 -2.93 8.45 -6.47 1.17&#xA;-1.9 2.02 -5 2.02 -7.4 0 -3.47 -.32 -4.13 -2 -4.13 -1.1 0 -2 .45 -2 1 0 .55&#xA;-1.09 1 -2.42 1 -3.45 0 -5.58 .99 -5.58 2.61 0 .88 -1.1 1.39 -2.99 1.39&#xA;-1.91 0 -3.44 .72 -4.24 2 -.69 1.1 -2.27 2 -3.51 2 -1.24 0 -3.16 .9 -4.26 2&#xA;-1.1 1.1 -2.9 2 -4 2 -1.1 0 -2.9 .9 -4 2 -1.16 1.16 -3.36 2.01 -5.25 2.02&#xA;-4.63 .03 -11.15 1.68 -11.57 2.92 -.53 1.58 -6.44 1.27 -10.03 -.52 -1.73&#xA;-.86 -5.63 -1.83 -8.65 -2.14 -3.75 -.39 -5.5 -1.01 -5.5 -1.95 0 -.76 -1.01&#xA;-1.77 -2.25 -2.25 -2.52 -.97 -8.99 -7.65 -10.02 -10.34 -.37 -.96 -1.36&#xA;-1.75 -2.2 -1.75 -1.03 0 -1.53 -.97 -1.53 -2.94 0 -1.72 -.77 -3.48 -1.85&#xA;-4.25 -1.2 -.85 -2.04 -3.05 -2.4 -6.25 -.3 -2.72 -1.2 -5.42 -1.99 -6 -.9&#xA;-.66 -1.66 -3.72 -2.03 -8.15 -.57 -6.88 -.51 -7.16 2.28 -9.61 1.64 -1.44&#xA;4.64 -2.76 7.01 -3.08 2.27 -.3 4.89 -1.21 5.81 -2.01 .92 -.8 3.25 -1.74&#xA;5.17 -2.09 1.92 -.35 4.71 -1.26 6.18 -2.03 1.48 -.77 4.03 -1.7 5.67 -2.06&#xA;1.64 -.36 3.21 -1.24 3.48 -1.96 .28 -.74 2.76 -1.52 5.75 -1.81 3.23 -.31&#xA;5.71 -1.13 6.44 -2.14 .66 -.9 2.31 -1.63 3.68 -1.63 3.26 0 8.79 -1.95 8.79&#xA;-3.1 0 -.5 1.25 -.9 2.79 -.9 1.53 0 4.55 -.9 6.71 -2 2.16 -1.1 4.73 -2 5.71&#xA;-2 .98 0 2.69 -.9 3.79 -2 1.1 -1.1 3.2 -2 4.66 -2 1.46 0 4.5 -1.08 6.75&#xA;-2.4 3.99 -2.34 7.56 -6.31 8.88 -9.86 .36 -.97 .2 -2.96 -.36 -4.44 -.56&#xA;-1.47 -2.23 -3.85 -3.72 -5.29 -1.49 -1.44 -4.43 -6.14 -6.54 -10.45 -2.11&#xA;-4.31 -4.86 -8.86 -6.1 -10.1 -1.25 -1.25 -2.54 -2.98 -2.88 -3.86 -.34 -.88&#xA;-1.25 -1.6 -2.03 -1.6 -.78 0 -1.65 -.9 -1.94 -2 -.29 -1.1 -1.24 -2 -2.12 -2&#xA;-.88 0 -1.59 -.64 -1.59 -1.43 0 -.79 -.84 -1.7 -1.87 -2.03 -1.03 -.33 -2.67&#xA;-1.48 -3.65 -2.57 -.98 -1.09 -2.62 -1.97 -3.63 -1.97 -1.01 0 -2.75 -.9&#xA;-3.85 -2 -1.1 -1.1 -3.04 -2 -4.3 -2 -1.26 0 -2.86 -.56 -3.54 -1.24 -.82&#xA;-.82 -5.08 -1.31 -12.45 -1.43 -6.16 -.1 -11.99 .04 -12.96 .32z m7.89 19.86&#xA;c1.58 .82 4.44 1.79 6.36 2.16 2.49 .47 5.26 2.45 9.61 6.86 4.18 4.24 6.31&#xA;7.27 6.76 9.59 .35 1.87 1.32 4.69 2.14 6.26 .82 1.58 1.49 3.49 1.49 4.25 0&#xA;.76 -.67 1.39 -1.49 1.39 -.96 0 -1.71 1.41 -2.13 4 -.48 3.01 -1.1 4 -2.51 4&#xA;-1.16 0 -1.87 .71 -1.87 1.87 0 1.48 -.95 1.98 -4.54 2.38 -2.5 .28 -5.35&#xA;1.24 -6.33 2.13 -.98 .89 -2.9 1.62 -4.25 1.62 -1.35 0 -4.23 .9 -6.38 2&#xA;-2.16 1.1 -4.93 2 -6.15 2 -1.23 0 -2.82 .83 -3.54 1.85 -.85 1.2 -3.05 2.04&#xA;-6.25 2.4 -2.72 .3 -5.43 1.22 -6.03 2.04 -.67 .91 -3.21 1.63 -6.56 1.85&#xA;l-5.47 .36 -.29 -9.85 c-.16 -5.42 .14 -10.37 .66 -11 1.07 -1.3 3.13 -11.63&#xA;3.13 -15.67 0 -2.87 3.49 -7.52 11.34 -15.09 3.92 -3.78 5.97 -4.92 10.75&#xA;-5.98 3.25 -.72 5.91 -1.67 5.91 -2.1 0 -1.24 2.5 -.93 5.64 .7z M480 302.88&#xA;c0 .49 -.9 1.12 -2 1.41 -1.1 .29 -2 1.24 -2 2.12 0 1.01 -.87 1.59 -2.35&#xA;1.59 -1.29 0 -3.15 .89 -4.13 1.97 -.98 1.09 -2.63 2.24 -3.65 2.57 -1.03 .33&#xA;-1.87 1.24 -1.87 2.03 0 .79 -.84 1.43 -1.87 1.43 -1.03 0 -2.94 .82 -4.25&#xA;1.83 -1.31 1.01 -3.17 2.12 -4.13 2.47 -.96 .35 -1.75 1.33 -1.75 2.17 0 1.04&#xA;-.98 1.53 -3.07 1.53 -1.69 0 -4.05 .5 -5.25 1.12 -3.63 1.86 -7.68 6.14&#xA;-7.68 8.1 0 1.01 .79 2.14 1.75 2.5 .96 .36 2.34 1.47 3.06 2.47 .75 1.05&#xA;2.55 1.82 4.25 1.82 2.28 0 2.94 .45 2.94 2 0 1.29 .67 2 1.88 2 1.04 0 2.12&#xA;.89 2.41 2 .29 1.1 1.24 2 2.12 2 1.03 0 1.59 .88 1.59 2.5 0 1.38 .91 3.41&#xA;2.02 4.52 1.96 1.96 2.03 3.37 2.25 48.25 l.23 46.23 -2.5 5.21 c-1.37 2.86&#xA;-3.1 5.23 -3.84 5.25 -.74 .02 -1.58 .94 -1.87 2.04 -.33 1.25 -1.36 2 -2.75&#xA;2 -1.23 0 -2.97 .82 -3.88 1.83 -.98 1.09 -1.65 3.52 -1.65 6 l0 4.17 35.39 0&#xA;c31.35 0 35.46 -.18 36 -1.58 1.27 -3.31 .54 -6.33 -2.03 -8.35 -1.45 -1.14&#xA;-3.92 -2.07 -5.5 -2.07 -1.58 0 -3.77 -.9 -4.87 -2 -1.1 -1.1 -3.07 -2 -4.38&#xA;-2 -1.54 0 -2.57 -.71 -2.91 -2 -.29 -1.1 -1.17 -2 -1.96 -2 -.91 0 -1.92&#xA;-2.02 -2.76 -5.55 -.73 -3.05 -1.7 -5.78 -2.16 -6.06 -.46 -.28 -.83 -31.8&#xA;-.83 -70.05 0 -68.69 -.02 -69.54 -2 -70.06 -1.1 -.29 -2 -.92 -2 -1.41 0&#xA;-.49 -.9 -.88 -2 -.88 -1.1 0 -2 .4 -2 .88z M490.63 519.14 c1.72 1.85 3.63&#xA;4.35 4.25 5.55 1.54 3.01 1.45 12.02 -.13 12.65 -.72 .29 -.48 .54 .57 .58 1&#xA;.04 2.59 -.34 3.55 -.85 .95 -.51 4.86 -1 8.68 -1.09 9.83 -.24 24.45 -2.1&#xA;24.45 -3.12 0 -.47 2.22 -.86 4.94 -.86 2.72 0 5.19 -.41 5.5 -.9 .31 -.5&#xA;2.28 -.67 4.42 -.39 3.49 .47 7.13 -.54 13.14 -3.65 .83 -.43 1.5 -2.08 1.5&#xA;-3.67 l0 -2.89 -20.45 -.27 c-14.85 -.2 -20.66 -.61 -21.21 -1.5 -.42 -.68&#xA;-2.91 -1.3 -5.55 -1.38 -2.63 -.08 -9.74 -.47 -15.79 -.86 l-11 -.71 3.13&#xA;3.36z" fill="#1a7bbc" fill-rule="evenodd" stroke="#1a7bbc" stroke-linejoin="round" stroke-width="0.80"/>
<path d="M496 39 c0 .55 -1.62 1 -3.59 1 -2.75 0 -3.72 .47 -4.12 2 -.4 1.53 -1.37 2&#xA;-4.16 2.01 -5.11 .02 -8.13 .99 -8.13 2.6 0 .93 -1.23 1.39 -3.75 1.4 -5.1&#xA;.02 -8.25 .97 -8.25 2.48 0 .78 -1.95 1.44 -5.17 1.75 -3.16 .3 -5.63 1.13&#xA;-6.36 2.13 -.68 .93 -2.59 1.63 -4.43 1.63 -2.39 0 -3.37 .52 -3.76 2 -.42&#xA;1.62 -1.36 2 -4.91 2 -3.05 0 -4.99 .61 -6.38 2 -1.1 1.1 -2.86 2 -3.92 2&#xA;-2.98 0 -5.08 1.08 -5.08 2.61 0 .93 -1.19 1.39 -3.59 1.39 -2.75 0 -3.72 .47&#xA;-4.12 2 -.42 1.62 -1.36 2 -4.91 2 -3.05 0 -4.99 .61 -6.38 2 -1.1 1.1 -2.9 2&#xA;-4 2 -1.1 0 -2.9 .9 -4 2 -1.1 1.1 -2.9 2 -4 2 -1.1 0 -2.9 .9 -4 2 -1.1 1.1&#xA;-2.9 2 -4 2 -1.1 0 -2.9 .9 -4 2 -1.1 1.1 -2.68 2 -3.5 2 -.83 0 -1.5 .89&#xA;-1.5 2 0 1.45 -.67 2 -2.42 2 -3.45 0 -5.58 .99 -5.58 2.61 0 .79 -1 1.39&#xA;-2.31 1.39 -1.27 0 -3.18 .81 -4.25 1.8 -1.07 .99 -2.73 2.1 -3.69 2.47 -.96&#xA;.37 -1.75 1.36 -1.75 2.2 0 1.03 -.97 1.53 -2.94 1.53 -1.72 0 -3.49 .77&#xA;-4.25 1.84 -.72 1.01 -2.44 2.12 -3.82 2.46 -1.38 .34 -4.25 2.21 -6.38 4.16&#xA;-2.13 1.95 -4.48 3.54 -5.24 3.54 -.76 0 -1.37 .9 -1.37 2 0 1.46 -.67 2&#xA;-2.45 2 -1.35 0 -3.66 1.12 -5.15 2.5 -1.48 1.38 -3.08 2.5 -3.55 2.5 -.47 0&#xA;-.85 .67 -.85 1.5 0 .83 -.72 1.5 -1.59 1.5 -.88 0 -1.83 .9 -2.12 2 -.29&#xA;1.11 -1.36 2 -2.41 2 -1.22 0 -1.88 .71 -1.88 2 0 1.47 -.67 2 -2.53 2 -1.91&#xA;0 -5.81 3.28 -16 13.47 -10.19 10.19 -13.47 14.09 -13.47 16 0 1.86 -.53 2.53&#xA;-2 2.53 -1.33 0 -2 .67 -2 2 0 1.33 -.67 2 -2 2 -1.33 0 -2 .67 -2 2 0 1.11&#xA;-.67 2 -1.5 2 -.82 0 -1.5 .38 -1.5 .84 0 .46 -1.12 2.15 -2.5 3.75 -1.37 1.6&#xA;-2.5 3.92 -2.5 5.16 -0 1.24 -.56 2.27 -1.25 2.29 -1.33 .04 -6.75 7.95 -6.75&#xA;9.84 0 .62 -.9 2.02 -2 3.12 -1.1 1.1 -2 3.12 -2 4.5 -0 1.47 -.57 2.5 -1.39&#xA;2.5 -1.53 0 -2.61 2.1 -2.61 5.08 0 1.06 -.9 2.82 -2 3.92 -1.41 1.41 -2 3.33&#xA;-2 6.5 0 3.18 -.41 4.5 -1.39 4.5 -.77 0 -1.67 .71 -2 1.58 -.33 .87 -.61&#xA;3.41 -.61 5.64 0 2.71 -.58 4.48 -1.75 5.34 -1.58 1.15 -1.75 3.49 -1.75&#xA;23.44 0 19.95 .17 22.29 1.75 23.44 1.17 .85 1.75 2.63 1.75 5.34 0 2.23 .27&#xA;4.77 .61 5.64 .33 .87 1.23 1.58 2 1.58 .92 0 1.39 1.17 1.39 3.45 -0 3.71&#xA;1.79 8.55 3.16 8.55 .46 0 .84 1.12 .84 2.5 0 1.37 .83 3.33 1.86 4.36 1.02&#xA;1.02 2.13 2.94 2.46 4.26 .33 1.32 2.85 4.87 5.59 7.88 4.36 4.8 5.08 5.24&#xA;5.72 3.57 .4 -1.05 1.55 -2.73 2.56 -3.73 1 -1 1.83 -2.73 1.83 -3.83 0 -1.1&#xA;.9 -2.9 2 -4 1.1 -1.1 2 -3.12 2 -4.5 0 -1.47 .57 -2.5 1.39 -2.5 1.61 0 2.61&#xA;-2.13 2.61 -5.58 0 -1.55 .57 -2.42 1.59 -2.42 .88 0 1.83 -.9 2.12 -2 .29&#xA;-1.1 .9 -2 1.36 -2 1.22 -0 6.93 -8.59 6.93 -10.43 0 -.86 .68 -1.57 1.5&#xA;-1.57 .82 0 1.5 -.51 1.5 -1.14 0 -1.36 33.23 -34.35 35.45 -35.21 .85 -.33&#xA;1.55 -1.28 1.55 -2.12 0 -.84 .69 -1.53 1.54 -1.53 1.69 0 14.46 -9.87 14.46&#xA;-11.18 0 -.45 .71 -.82 1.57 -.82 1.84 0 10.43 -5.71 10.43 -6.93 0 -.46 .9&#xA;-1.07 2 -1.36 1.1 -.29 2 -1.24 2 -2.12 0 -1.03 .88 -1.59 2.5 -1.59 1.37 0&#xA;3.4 -.9 4.5 -2 1.1 -1.1 2.61 -2 3.37 -2 .75 0 2.44 -.82 3.75 -1.83 1.31&#xA;-1.01 3.17 -2.12 4.13 -2.47 .96 -.35 1.75 -1.33 1.75 -2.17 0 -.97 .92 -1.53&#xA;2.5 -1.53 1.38 0 3.4 -.9 4.5 -2 1.1 -1.1 2.9 -2 4 -2 1.1 0 2.9 -.9 4 -2 1.1&#xA;-1.1 2.9 -2 4 -2 1.1 0 2.84 -.84 3.86 -1.86 1.02 -1.02 3.5 -2.17 5.5 -2.55&#xA;2.2 -.41 3.64 -1.26 3.64 -2.14 0 -.87 .97 -1.45 2.42 -1.45 3.45 0 5.58 -.99&#xA;5.58 -2.61 0 -.81 1.02 -1.39 2.42 -1.39 3.45 0 5.58 -.99 5.58 -2.61 0 -.88&#xA;1.1 -1.39 2.95 -1.39 2.81 0 7.98 -1.76 9.05 -3.08 .27 -.34 1.71 -.91 3.18&#xA;-1.27 1.47 -.36 3.35 -1.33 4.18 -2.15 .82 -.82 2.43 -1.5 3.57 -1.5 1.14 0&#xA;2.97 -.9 4.07 -2 1.1 -1.1 3.06 -2 4.35 -2 3.15 0 8.65 -1.97 8.65 -3.1 0 -.5&#xA;1.09 -.9 2.42 -.9 3.45 0 5.58 -.99 5.58 -2.61 0 -.93 1.18 -1.39 3.56 -1.39&#xA;4.57 0 12.44 -1.97 12.44 -3.12 0 -.48 .96 -.88 2.13 -.88 3.09 0 9.87 -2.17&#xA;9.87 -3.16 0 -.46 .96 -.84 2.13 -.84 3.09 0 9.87 -2.17 9.87 -3.16 0 -.46&#xA;1.28 -.84 2.85 -.84 3.56 0 9.15 -1.89 9.15 -3.1 0 -.5 1.46 -.91 3.25 -.91&#xA;4.97 -.01 23.11 -4.87 24.36 -6.53 .64 -.84 2.76 -1.47 5 -1.47 4.82 -.01&#xA;11.39 -1.76 11.39 -3.04 0 -.52 .9 -.95 2 -.95 1.91 0 2 -.67 2 -14.04 l0&#xA;-14.04 -6.66 -7.21 c-3.66 -3.97 -7.18 -7.66 -7.81 -8.21 -.64 -.55 -1.45&#xA;-1.79 -1.81 -2.75 -.36 -.96 -1.35 -1.75 -2.19 -1.75 -.86 0 -1.53 -.87 -1.53&#xA;-2 0 -1.33 -.67 -2 -2 -2 -1.33 0 -2 -.67 -2 -2 0 -1.33 -.67 -2 -2 -2 -1.33&#xA;0 -2 -.67 -2 -2 0 -1.33 -.67 -2 -2 -2 -1.26 0 -2 -.67 -2 -1.79 0 -2.27 -8&#xA;-10.21 -10.29 -10.21 -1.05 0 -1.71 -.78 -1.71 -2 0 -1.33 -.67 -2 -2 -2&#xA;-1.33 0 -2 -.67 -2 -2 0 -1.33 -.67 -2 -2 -2 -1.33 0 -2 -.67 -2 -2 0 -1.29&#xA;-.67 -2 -1.88 -2 -1.04 0 -2.12 -.89 -2.41 -2 -.29 -1.1 -1.24 -2 -2.12 -2&#xA;-.88 0 -1.59 -.72 -1.59 -1.59 0 -.88 -.86 -1.82 -1.91 -2.09 -1.05 -.27&#xA;-2.13 -1.36 -2.41 -2.41 -.27 -1.05 -1.22 -1.91 -2.09 -1.91 -.88 0 -1.59&#xA;-.82 -1.59 -1.83 0 -2.24 -4.02 -6.17 -6.31 -6.17 -.93 0 -1.69 -.45 -1.69 -1&#xA;0 -.55 -.9 -1 -2 -1 -1.1 0 -2 .45 -2 1z M563 146.04 c-6.2 1.75 -6.32 1.83&#xA;-2.5 1.89 4.82 .07 11.5 -1.65 11.5 -2.97 0 -.52 -.56 -.91 -1.25 -.85 -.69&#xA;.06 -4.17 .93 -7.75 1.93z M553 148.92 c-.83 .47 -3.52 1.18 -6 1.59 -2.48 .4&#xA;-5.39 1.2 -6.48 1.77 -1.09 .57 -4.24 1.6 -7 2.27 -4.02 .99 -4.42 1.25 -2.02&#xA;1.33 1.65 .06 7.45 -1.03 12.89 -2.42 5.44 -1.39 10.28 -2.76 10.75 -3.05&#xA;1.06 -.65 1.14 -2.42 .11 -2.38 -.41 .02 -1.42 .42 -2.25 .89z M2572.13&#xA;578.37 l-3.31 3.41 3.12 1.84 c2.96 1.75 3.08 2.07 2.46 6.36 -.36 2.49 -.97&#xA;4.97 -1.35 5.52 -.38 .55 -.77 3.16 -.85 5.81 -.09 2.65 -.84 6.82 -1.67 9.28&#xA;-.84 2.46 -1.52 5.05 -1.52 5.76 0 .71 1.03 2.26 2.3 3.45 l2.3 2.16 6.18&#xA;-6.23 c6.15 -6.21 6.18 -6.27 7.29 -14.23 .61 -4.4 1.46 -8.9 2.02 -9.95 .85&#xA;-1.6 -.02 -2.97 -6.27 -9.22 l-7.38 -7.38 -3.31 3.41z M2355.02 584.48 c-3&#xA;3.09 -3.34 3.52 -1.55 3.52 1.21 0 2.68 1.03 3.37 2.55 1.22 2.68 1.46 10.66&#xA;.42 11.7 -.34 .34 -.65 3.03 -.87 5.95 -.21 2.92 -.93 7.45 -1.58 10.08 -1.09&#xA;4.33 -1.01 4.96 .77 6.75 1.96 1.96 2.01 1.93 10.07 -6.28 7.54 -7.69 8.17&#xA;-8.65 9.24 -14.23 l1.14 -5.98 -8.79 -8.79 -8.79 -8.79 -3.42 3.52z M2205&#xA;586.5 c-.68 .83 -2.28 1.5 -3.54 1.5 -3.34 0 -5.46 1.01 -5.46 2.61 0 .8 -1.1&#xA;1.39 -2.48 1.39 -1.86 0 -2.67 .9 -3.92 4.02 -.88 2.21 -1.61 5.6 -1.61 7.54&#xA;0 1.93 -.67 4.53 -1.48 5.77 -1.42 2.17 -1.16 2.58 6.29 9.99 l7.77 7.73 2.88&#xA;-3 2.88 -3 -3.17 -3.03 c-2.81 -2.68 -3.17 -3.66 -3.17 -8.52 0 -3.02 .39&#xA;-5.49 .88 -5.49 .48 0 1.47 -2.67 2.19 -5.93 .93 -4.18 1.85 -6.07 3.12 -6.41&#xA;.99 -.26 1.77 -1.11 1.77 -1.99 0 -.88 .52 -1.67 1.11 -1.67 .76 0 .48 -.31&#xA;-.59 -1.38 -.82 -.83 -1.54 -1.62 -1.79 -1.62 -.25 0 -1.01 .67 -1.69 1.5z&#xA;M2444.01 624.49 c-3.12 3.22 -3.22 3.51 -1.25 3.51 3.26 0 4.37 2.99 3.23&#xA;8.66 -.54 2.66 -1.21 7.97 -1.5 11.79 -.29 3.82 -.86 7.2 -1.26 7.5 -.41 .3&#xA;-.84 2.09 -.96 3.98 -.12 1.88 -.57 3.68 -1 4 -.43 .32 -.82 3.59 -1 7.17&#xA;-.28 5.39 -.12 6.73 1.45 8.15 1.81 1.64 2.14 1.46 7.64 -4.1 5.44 -5.5 5.78&#xA;-6.13 6.27 -11.73 .29 -3.25 .92 -6.82 1.39 -7.92 .73 -1.72 1.57 -6.35 3.48&#xA;-18.74 .33 -2.11 -.87 -3.66 -6.35 -9.11 l-6.73 -6.68 -3.41 3.51z M2572.2&#xA;630.3 c-4.2 4.24 -6.2 7.05 -6.22 8.73 -.01 1.36 -.66 6.07 -1.45 10.47&#xA;l-1.43 8 5.87 5.91 5.87 5.91 .6 -4.91 c.33 -2.7 1.01 -6.7 1.56 -9.18 1.67&#xA;-7.48 1.99 -9.45 2.66 -16.51 .35 -3.73 1.03 -7.02 1.5 -7.31 1.46 -.9 .94&#xA;-4.02 -.95 -5.73 -1.69 -1.53 -2.18 -1.25 -8 4.62z M1984.7 631.63 c-.39 .39&#xA;-.71 2.09 -.71 3.79 -0 1.7 -.86 5.87 -1.89 9.28 -1.04 3.41 -1.68 6.4 -1.42&#xA;6.65 .65 .65 -2.81 17.65 -3.6 17.65 -.36 0 -.73 2.04 -.84 4.53 -.11 2.49&#xA;-.92 7.03 -1.81 10.08 -1.59 5.49 -1.59 5.59 .68 8 l2.3 2.44 8.17 -8.13&#xA;c7.99 -7.95 8.19 -8.27 9.26 -14.72 .8 -4.85 .8 -6.95 -.03 -7.95 -.84 -1.01&#xA;-.83 -1.64 .04 -2.51 .64 -.64 1.16 -1.97 1.16 -2.96 0 -.99 .45 -1.8 1 -1.8&#xA;.55 0 1 -1.19 1 -2.87 0 -1.69 .55 -4.43 1.15 -5.57 .98 -1.83 .22 -2.67&#xA;-6.34 -9.23 -4.07 -4.07 -7.72 -7.09 -8.11 -6.7z M2185.81 640.77 c-3.07 3.15&#xA;-6.03 6.63 -6.58 7.73 -.55 1.1 -1.53 5.38 -2.19 9.5 -.66 4.12 -1.6 9.3&#xA;-2.11 11.5 -.5 2.2 -1.39 7.83 -1.98 12.5 -.59 4.67 -1.63 10.52 -2.31 13&#xA;-1.27 4.64 -1.12 9 .31 9 .45 0 .9 1.08 1.19 2.18 .45 1.72 1.51 1.82 6.78&#xA;1.82 5.76 0 6.37 -.23 10.53 -4.07 2.43 -2.24 4.2 -4.65 3.93 -5.36 -.27 -.71&#xA;-1.57 -1.17 -2.9 -1.02 -1.32 .15 -2.83 -.28 -3.45 -1.03 -.71 -.86 -1.02&#xA;-3.6 -.68 -7.23 .3 -3.18 .84 -9.16 1.21 -13.29 .37 -4.12 1 -7.73 1.4 -8&#xA;1.23 -.86 3.03 -9.65 3.03 -14.74 0 -2.67 .38 -5.28 .88 -5.81 .49 -.52 1.21&#xA;-2.77 1.57 -5 .52 -3.23 .28 -4.39 -1.2 -5.73 -1.77 -1.6 -2.13 -1.4 -7.44&#xA;4.05z M2499.77 644.68 c-1.92 2.65 -4.9 7.79 -6.62 11.43 -2.81 5.94 -3.68&#xA;8.95 -6.02 20.83 -.42 2.13 -.04 5.95 1 10 .93 3.61 2.32 7.77 3.1 9.26 l1.42&#xA;2.7 5.84 -5.9 5.82 -6.02 -1.3 -6.91 c-.72 -3.8 -.98 -8.31 -.62 -10.18 .36&#xA;-1.86 .93 -5.75 1.26 -8.64 .33 -2.89 .87 -5.25 1.29 -5.25 .42 0 1.37 -1.46&#xA;2.04 -3.25 .66 -1.79 1.57 -3.98 2.03 -4.87 .62 -1.19 -.04 -2.48 -2.45 -4.82&#xA;l-3.3 -3.19 -3.5 4.82z M2357.79 648.68 c-4.63 4.63 -5.93 5.45 -7.11 4.47&#xA;-1.17 -.97 -1.56 -.77 -2.05 1.07 -.33 1.25 -.61 3.59 -.62 5.2 -.01 3.08&#xA;-2.03 9.57 -2.97 9.57 -.3 0 -.64 3.06 -.76 6.8 -.11 3.78 -.89 8.11 -1.74&#xA;9.75 -.85 1.62 -1.54 3.43 -1.54 4.02 -0 .59 1.03 2.05 2.3 3.24 l2.3 2.16&#xA;4.41 -4.49 c2.42 -2.47 4.93 -4.49 5.57 -4.49 .64 0 1.79 .75 2.54 1.66 1.21&#xA;1.47 1.45 1.09 2.01 -3.25 .35 -2.7 1.35 -7.61 2.21 -10.91 .87 -3.3 1.59&#xA;-8.59 1.61 -11.75 .02 -3.16 .43 -5.75 .92 -5.75 .49 0 1.2 -2.09 1.58 -4.64&#xA;.57 -3.79 .36 -4.98 -1.16 -6.49 -1.8 -1.8 -2 -1.7 -7.52 3.82z M2087.82&#xA;654.71 c-2.15 2.46 -2.73 6.64 -1.14 8.13 1.19 1.11 1.75 5.11 1.69 12.16&#xA;-.01 1.38 .24 2.73 .56 3 1.12 .95 3.07 7.78 3.08 10.69 .01 1.61 .3 3.86 .64&#xA;5.14 .59 2.22 .9 2.06 6.29 -3.28 l5.67 -5.61 -.76 -7.14 c-.42 -3.93 -1.02&#xA;-8.33 -1.35 -9.79 -.32 -1.46 -3.41 -5.45 -6.86 -8.87 -5.91 -5.86 -6.36&#xA;-6.11 -7.83 -4.43z M2557.98 666.75 c-1.36 2.61 -3.27 5.59 -4.23 6.9 -.96&#xA;1.31 -1.75 3.45 -1.75 4.48 0 1.03 -.69 1.87 -1.53 1.87 -.84 0 -1.82 .77&#xA;-2.18 1.7 -.36 .94 -2.36 3.27 -4.44 5.18 -2.97 2.73 -3.54 3.78 -2.66 4.84&#xA;.93 1.12 1.69 .84 4.22 -1.53 4.95 -4.62 10.37 -8.36 10.87 -7.5 .25 .44 .24&#xA;4.51 -.04 9.05 -.28 4.54 -.77 8.25 -1.25 8.25 -1.51 0 -1.06 2.62 .81 4.32&#xA;1.69 1.53 2.2 1.22 8.51 -5.13 6.45 -6.5 6.77 -7 7.63 -13.21 .49 -3.55 1.16&#xA;-7.38 1.51 -8.48 .5 -1.56 -.88 -3.5 -6.18 -8.75 l-6.82 -6.75 -2.48 4.75z&#xA;M2233.17 689.59 c-2.31 1.97 -4.68 4.5 -5.28 5.62 -.94 1.76 -.38 2.75 4.23&#xA;7.41 2.99 3.03 6.2 5.38 7.35 5.37 2.08 -.01 6.84 -4.45 9.76 -9.1 1.48 -2.37&#xA;1.5 -2.88 .15 -5.5 -2.26 -4.4 -5.96 -7.39 -9.15 -7.39 -1.84 0 -4.36 1.28&#xA;-7.06 3.59z M2612 687 c0 .55 -1.29 1 -2.6 1 -1.51 0 -3.49 1.46 -5.78 4&#xA;-1.99 2.2 -3.62 4.58 -3.62 5.29 0 .71 2.15 3.41 4.78 6 3.64 3.58 5.53 4.71&#xA;7.9 4.71 2.31 0 3.91 -.91 6.22 -3.53 1.71 -1.94 3.16 -4.32 3.16 -5.12 0&#xA;-.81 .37 -1.34 .89 -1.34 1.24 0 -.7 -5.92 -2.72 -8.25 -.83 -.96 -2.14 -1.75&#xA;-2.88 -1.75 -.74 0 -1.35 -.45 -1.35 -1 0 -.55 -.9 -1 -2 -1 -1.1 0 -2 .45 -2&#xA;1z" fill="#4ab64b" fill-rule="evenodd" stroke="#4ab64b" stroke-linejoin="round" stroke-width="0.80"/>
<g mask="url(#bw-holes)">
    <path d="M2585.75 568.69 c-.96 .25 -1.75 1.04 -1.75 1.76 0 .83 -1.85 1.48 -5.17 1.8&#xA;-3.16 .3 -5.63 1.13 -6.36 2.13 -.7 .96 -2.61 1.63 -4.63 1.63 -1.89 0 -3.98&#xA;.54 -4.64 1.2 -.66 .66 -1.2 2.01 -1.2 3 0 1.8 .39 1.94 5.96 2.17 1.63 .07&#xA;3.75 .91 4.7 1.86 1.58 1.58 1.63 2.52 .54 10.05 -.66 4.57 -1.2 9.53 -1.2&#xA;11.01 0 1.48 -.39 2.7 -.88 2.7 -.48 0 -1.47 2.7 -2.21 6 -.98 4.44 -1.77 6&#xA;-3.02 6 -.93 0 -1.93 -.63 -2.23 -1.41 -.3 -.77 -2.03 -1.73 -3.84 -2.13&#xA;-1.82 -.4 -4.34 -1.4 -5.6 -2.23 -1.69 -1.11 -3.81 -1.35 -8 -.92 -3.14 .32&#xA;-5.86 1.06 -6.05 1.64 -.19 .58 -1.87 1.05 -3.72 1.05 -3.64 0 -8.46 1.8&#xA;-8.46 3.16 0 .46 -.9 .84 -2 .84 -1.33 0 -2 .67 -2 2 0 1.53 -.67 2 -2.82 2&#xA;-1.76 0 -3.64 .94 -4.99 2.5 -1.2 1.38 -2.63 2.5 -3.18 2.5 -.55 0 -1.01 .67&#xA;-1.01 1.5 0 .83 -.69 1.5 -1.53 1.5 -.84 0 -1.82 .75 -2.17 1.66 -.35 .91&#xA;-2.06 3.05 -3.81 4.75 -4.41 4.3 -8.49 9.98 -8.49 11.83 0 .85 -.65 1.8 -1.44&#xA;2.1 -.79 .3 -1.74 2.15 -2.11 4.11 -.37 1.95 -.98 3.55 -1.35 3.55 -1.28 0&#xA;-3.09 6.62 -3.09 11.32 0 2.57 -.45 4.68 -1 4.68 -.55 0 -1 1.55 -1 3.44 0&#xA;1.89 .45 3.72 1 4.06 .55 .34 1 2.62 1 5.06 0 3.11 .6 5.04 2 6.44 1.1 1.1 2&#xA;2.62 2 3.38 0 .76 1.84 3.27 4.08 5.59 l4.08 4.21 11 -.34 c9.07 -.28 11.22&#xA;-.64 12.28 -2.09 .7 -.96 2.16 -1.75 3.23 -1.75 1.07 0 2.82 -.81 3.89 -1.8&#xA;1.07 -.99 2.73 -2.1 3.69 -2.47 .96 -.37 1.75 -1.36 1.75 -2.2 0 -.84 .56&#xA;-1.54 1.25 -1.54 .69 -0 3.84 -2.23 7.01 -4.94 3.17 -2.71 7.1 -5.89 8.75&#xA;-7.06 l2.99 -2.13 0 9.07 c0 4.99 -.52 9.07 -1.01 9.07 -.49 0 -1.07 1.17&#xA;-1.42 2.6 -.37 1.48 -.15 3.2 .51 4 .64 .77 2.6 1.4 4.36 1.4 1.75 0 7.15&#xA;-1.34 11.99 -2.97 5.73 -1.94 9.7 -3.94 11.38 -5.75 l2.58 -2.78 -6.14 -.3&#xA;c-4.75 -.23 -6.26 -.68 -6.68 -2.01 -.3 -.94 -.14 -4.65 .38 -8.22 2.05 -14.1&#xA;4.17 -26.9 5.05 -30.75 .51 -2.23 1.41 -7.85 2.05 -12.77 .64 -4.92 1.5 -9.63&#xA;1.92 -10.47 .42 -.83 1.34 -5.56 2.05 -10.5 .71 -4.94 1.63 -9.44 2.05 -9.99&#xA;.42 -.55 1.29 -4.83 1.95 -9.5 .65 -4.67 1.64 -9.35 2.07 -10.45 1.08 -2.8&#xA;2.92 -13.63 2.92 -16.86 0 -1.62 .55 -2.69 1.38 -2.69 .76 0 1.62 -.9 1.91 -2&#xA;.46 -1.78 .06 -1.99 -3.63 -1.88 -2.29 .06 -4.94 .32 -5.91 .57z m-37.63&#xA;54.47 c6.26 1.03 7.55 1.66 12.16 5.92 4.71 4.36 5.15 5.14 5.1 9.09 -.08&#xA;6.85 -1.6 17.83 -2.47 17.83 -.43 0 -1.09 1.01 -1.46 2.25 -1.13 3.8 -5.87&#xA;13.35 -7.72 15.41 -.96 1.07 -1.75 2.71 -1.75 3.92 0 1.35 -.77 2.4 -2 2.72&#xA;-1.1 .29 -2 1.24 -2 2.12 0 .88 -.69 1.59 -1.53 1.59 -.84 0 -1.81 .72 -2.15&#xA;1.6 -.34 .88 -1.59 2.57 -2.78 3.75 -3.01 2.99 -11.35 7.35 -15.55 8.13 -1.93&#xA;.36 -5.74 .14 -8.48 -.47 -3.85 -.86 -5.92 -2.12 -9.08 -5.52 -3.48 -3.73&#xA;-4.28 -5.36 -5.42 -11.42 -1.08 -5.73 -1.14 -8.4 -.19 -12.98 .65 -3.14 1.18&#xA;-6.92 1.18 -8.4 0 -1.48 .46 -2.69 .94 -2.69 .48 0 1.36 -1.46 2.04 -3.25&#xA;2.82 -7.42 5.78 -12.56 10.26 -17.87 2.61 -3.09 6.09 -6.19 7.75 -6.87 1.66&#xA;-.69 3.01 -1.87 3.01 -2.63 0 -.87 1.19 -1.4 3.25 -1.45 1.79 -.04 4.15 -.46&#xA;5.25 -.93 1.1 -.47 2.59 -.89 3.31 -.93 .72 -.04 4.46 .45 8.31 1.09z&#xA;M1984.33 580.9 c-3.39 .33 -6.54 .97 -7 1.43 -1.33 1.33 4.5 5.66 7.61 5.66&#xA;2.29 0 2.93 .53 3.37 2.75 .72 3.61 -.41 25.25 -1.32 25.25 -.96 0 -2.99&#xA;12.76 -2.99 18.74 0 2.67 -.45 5.31 -1.01 5.87 -.56 .56 -1.5 4.81 -2.1 9.45&#xA;-.6 4.64 -1.48 9.19 -1.95 10.11 -.47 .92 -1.42 5.64 -2.1 10.5 -.68 4.86&#xA;-1.51 9.05 -1.84 9.33 -.81 .68 -2.99 10.58 -2.99 13.58 0 1.76 -.55 2.42 -2&#xA;2.42 -1.33 0 -2 .67 -2 2 0 1.67 -.67 2 -4.07 2 -2.24 0 -4.94 .47 -6 1.04&#xA;-1.06 .57 -1.93 1.66 -1.93 2.43 0 .77 .86 1.67 1.91 2.01 1.05 .33 11.2 .64&#xA;22.55 .69 19.03 .07 20.75 -.07 22.05 -1.79 .78 -1.03 1.43 -2.16 1.45 -2.51&#xA;.02 -.35 -1.54 -.93 -3.47 -1.3 -1.92 -.36 -4.62 -1.78 -6 -3.16 -2.22 -2.22&#xA;-2.5 -3.34 -2.5 -9.95 0 -4.1 .36 -7.45 .8 -7.45 .9 0 3.2 -14.61 3.2 -20.3 0&#xA;-2.03 .45 -3.7 1 -3.7 .55 0 1 -1.4 1 -2.87 0 -1.47 .49 -3.74 1.15 -5.57&#xA;1.07 -2.95 1.66 -3.56 4.96 -3.56 2.04 0 3.88 .48 4.07 1.07 .45 1.36 14.9&#xA;1.4 15.74 .04 .33 -.54 1.95 -1.2 3.59 -1.46 1.64 -.27 3.21 -.53 3.48 -.6&#xA;.28 -.06 -.37 -.77 -1.44 -1.58 -1.12 -.85 -4.11 -1.47 -7.07 -1.47 -3.67 0&#xA;-6.91 -.86 -11.37 -3.02 -7.71 -3.73 -9.22 -6.48 -7.84 -14.26 .51 -2.87 1.32&#xA;-5.98 1.79 -6.91 .47 -.93 1.39 -5.82 2.04 -10.88 1 -7.78 1.62 -9.7 4.06&#xA;-12.48 3.17 -3.61 10.16 -6.46 15.75 -6.43 1.96 .01 5.6 .48 8.07 1.04 3.35&#xA;.75 5.65 2.22 8.99 5.73 l4.49 4.71 -.04 12.61 c-.03 10.52 -.32 12.9 -1.74&#xA;14.32 -.94 .94 -2 2.91 -2.37 4.39 -.36 1.47 -1.49 3.27 -2.5 3.99 -1.01 .72&#xA;-1.84 1.73 -1.84 2.25 0 1.65 4.93 1.01 6.83 -.88 1 -1 2.58 -2.12 3.5 -2.47&#xA;.92 -.35 1.67 -1.33 1.67 -2.17 0 -.84 .54 -1.53 1.2 -1.53 1.51 0 6.8 -5.02&#xA;6.8 -6.45 0 -.59 1.69 -1.81 3.75 -2.71 3.66 -1.6 3.76 -1.59 4.07 .26 .37&#xA;2.22 3.88 4.91 6.4 4.91 1.16 0 1.78 .76 1.78 2.19 0 1.2 .83 3.11 1.84 4.25&#xA;1.01 1.14 2.43 4.65 3.16 7.81 .73 3.16 1.7 5.75 2.16 5.75 .46 0 .84 1.95&#xA;.84 4.33 0 5.58 2.02 15.67 3.14 15.67 .47 0 .86 1.95 .86 4.33 0 5.58 2.02&#xA;15.67 3.14 15.67 .47 0 .87 2.04 .87 4.69 0 6 1.83 16.39 3.21 18.06 .57 .69&#xA;1.8 1.25 2.73 1.25 1.88 0 6.05 -3.97 6.05 -5.76 0 -.62 1.04 -2.26 2.31&#xA;-3.63 1.27 -1.37 3.18 -4.21 4.25 -6.3 1.07 -2.09 2.19 -4.03 2.5 -4.31 1.05&#xA;-.93 6.93 -9.86 6.93 -10.52 0 -.36 .9 -1.81 2 -3.2 1.1 -1.4 2 -3.38 2 -4.41&#xA;0 -1.03 .58 -1.87 1.29 -1.87 .71 0 2.62 -2.59 4.25 -5.75 1.63 -3.16 3.22&#xA;-5.98 3.53 -6.25 1.32 -1.17 6.93 -9.94 6.93 -10.85 0 -.54 .34 -1.14 .76&#xA;-1.32 .42 -.18 2.22 -2.2 4 -4.48 1.78 -2.28 3.24 -4.87 3.24 -5.75 0 -.88&#xA;.72 -1.61 1.59 -1.61 .88 0 1.8 -.8 2.06 -1.78 .26 -1 3.52 -3.24 7.41 -5.11&#xA;5.72 -2.75 6.94 -3.75 6.94 -5.72 0 -2.33 -.22 -2.39 -8.75 -2.49 -4.81 -.06&#xA;-13.92 -.09 -20.25 -.08 -9.1 .02 -11.7 .33 -12.44 1.52 -1.53 2.43 1.09 4.55&#xA;6.55 5.27 4.8 .64 4.9 .72 5.03 4.27 .22 5.71 -.29 11.57 -1.05 12.12 -.38&#xA;.27 -1.32 2.08 -2.08 4 -.76 1.92 -2.19 4.57 -3.19 5.88 -1 1.31 -1.82 2.98&#xA;-1.82 3.7 0 .72 -1.01 2.42 -2.25 3.77 -1.24 1.35 -3.14 4.19 -4.22 6.3 -1.08&#xA;2.12 -2.77 4.92 -3.75 6.23 -.98 1.31 -1.78 2.96 -1.78 3.67 0 1.33 -2.79 5&#xA;-6.83 9.02 -1.28 1.27 -2.97 2.07 -3.75 1.77 -.85 -.33 -1.42 -1.94 -1.42 -4&#xA;0 -4.93 -1.98 -17.52 -3.07 -19.57 -.51 -.96 -.93 -3.02 -.93 -4.58 0 -3.99&#xA;-2.11 -14.49 -3.14 -15.63 -.47 -.52 -.86 -4.22 -.86 -8.22 0 -5.47 .51 -8.17&#xA;2.05 -10.92 1.13 -2.01 1.85 -3.85 1.61 -4.09 -.24 -.24 -7.58 -.64 -16.3&#xA;-.88 -8.72 -.24 -16.16 -.44 -16.53 -.44 -.88 -0 1.08 -7.14 2.4 -8.76 1.57&#xA;-1.93 1.13 -11.95 -.7 -15.81 -.9 -1.89 -2.28 -3.43 -3.08 -3.43 -.8 0 -1.45&#xA;-.67 -1.45 -1.49 0 -.82 -1.53 -2.13 -3.4 -2.91 -1.87 -.78 -6.57 -1.91&#xA;-10.44 -2.51 -3.99 -.62 -18.44 -1.03 -33.35 -.94 -14.47 .08 -29.08 .42&#xA;-32.48 .75z M2353.75 580.71 c-4.27 .21 -7.75 .83 -7.75 1.38 0 .55 1.1 2.11&#xA;2.45 3.46 1.35 1.35 3.7 2.45 5.01 2.45 1.88 0 2.48 .82 3.49 3.89 1.01 3.06&#xA;1.18 5.28 .29 10.36 -.62 3.55 -1.26 8.07 -1.26 10.08 0 2.02 -.4 3.67 -.88&#xA;3.67 -1.02 0 -3.12 13.08 -3.12 19.46 0 2.41 -.46 4.53 -1.01 4.71 -1.29 .43&#xA;-2.97 10.61 -2.98 18 -0 3.12 -.46 5.82 -1.02 6 -1.09 .36 -2.97 10.23 -2.98&#xA;15.65 -0 1.83 -.67 3.98 -1.48 4.79 -.81 .81 -1.76 3.66 -2.12 6.34 -.48 3.6&#xA;-1.14 5 -2.53 5.36 -1.04 .27 -1.88 1.21 -1.88 2.09 0 1.21 -1.03 1.59 -4.31&#xA;1.59 -2.37 0 -5.14 .61 -6.16 1.36 -1.07 .78 -1.6 2.01 -1.26 2.9 .46 1.21&#xA;3.17 1.7 12.41 2.29 6.5 .41 22.46 .48 35.47 .15 17.03 -.43 24.53 -.26 26.78&#xA;.59 2.26 .85 3.6 .89 4.85 .13 2.35 -1.43 8.22 -13.23 8.22 -16.52 0 -1.47&#xA;.65 -2.92 1.44 -3.23 .79 -.3 1.75 -2.16 2.11 -4.12 .37 -1.96 1.07 -3.81&#xA;1.56 -4.11 1.24 -.77 1.11 -5.17 -.18 -5.97 -1.45 -.9 -4.94 2.42 -4.94 4.69&#xA;0 1.01 -.68 1.85 -1.5 1.85 -.82 0 -1.5 .49 -1.5 1.1 0 .6 -2.96 4.16 -6.57&#xA;7.9 -4.74 4.91 -7.52 6.98 -9.97 7.44 -1.87 .35 -3.78 1.31 -4.23 2.12 -.64&#xA;1.14 -3.88 1.63 -13.99 2.11 -10.29 .49 -13.51 .34 -14.78 -.72 -1.18 -.98&#xA;-1.44 -2.18 -.94 -4.4 .38 -1.68 1.06 -5.98 1.52 -9.56 .46 -3.58 1.52 -9.65&#xA;2.36 -13.5 .84 -3.85 1.54 -9.05 1.56 -11.55 .02 -2.5 .45 -4.98 .96 -5.5 .85&#xA;-.87 2.02 -6.03 5.63 -24.95 .74 -3.85 1.36 -8.66 1.39 -10.69 .03 -2.03 .5&#xA;-3.97 1.05 -4.31 .55 -.34 1 -2.09 1 -3.89 0 -5.51 2.21 -14.96 4.16 -17.76&#xA;1.01 -1.46 1.84 -3.31 1.84 -4.12 0 -.95 1.46 -1.7 4.13 -2.13 2.27 -.36 4.97&#xA;-1.11 6 -1.66 1.03 -.55 1.87 -2 1.87 -3.22 -0 -2.19 -.2 -2.22 -15.25 -2.3&#xA;-8.39 -.05 -18.73 .08 -23 .29z M2472 586.5 c0 1.11 -1.17 1.5 -4.5 1.5 -3.17&#xA;0 -5.09 .59 -6.5 2 -1.1 1.1 -2.43 2 -2.95 2 -1.41 0 -3.74 5.69 -5.11 12.5&#xA;-.66 3.3 -2.16 8.09 -3.32 10.65 -1.74 3.83 -2.7 4.77 -5.41 5.31 -1.82 .36&#xA;-3.55 1.3 -3.86 2.1 -.33 .87 -1.91 1.44 -3.95 1.44 -2.23 0 -3.39 .48 -3.39&#xA;1.39 0 .77 .71 1.67 1.58 2 .87 .33 3.58 .61 6.03 .61 3.61 0 4.6 .4 5.23 2.1&#xA;.43 1.16 .2 4.85 -.51 8.25 -.71 3.38 -1.3 8.4 -1.32 11.15 -.02 2.75 -.69&#xA;6.88 -1.49 9.18 -.8 2.3 -1.87 7.84 -2.24 12.42 -.37 4.58 -.96 8.66 -1.45&#xA;8.98 -1.25 .82 -2.81 11.31 -2.82 18.98 -0 3.77 .5 7.06 1.19 7.75 .67 .67&#xA;3.86 1.2 7.19 1.2 5.2 0 6.88 -.53 12.68 -3.98 3.68 -2.19 6.98 -4.73 7.33&#xA;-5.64 .35 -.92 .42 -1.89 .14 -2.16 -.27 -.27 -2.87 -.02 -5.77 .55 -3.59 .71&#xA;-5.67 .72 -6.51 .03 -.88 -.73 -1.05 -3.18 -.61 -8.66 .34 -4.21 .97 -8.1 1.4&#xA;-8.65 .43 -.55 1.32 -5.73 1.98 -11.5 .66 -5.77 1.54 -11.4 1.99 -12.5 .45&#xA;-1.1 1.29 -4.92 1.86 -8.5 .56 -3.58 1.28 -8.1 1.63 -10.24 .34 -2.14 1.32&#xA;-5.1 2.16 -6.37 1.42 -2.17 2.26 -2.34 12.67 -2.6 9.69 -.25 11.19 -.51 11.48&#xA;-2.03 .29 -1.5 -.47 -1.75 -5.24 -1.75 -3.07 0 -5.57 -.38 -5.57 -.84 0 -.46&#xA;-1.76 -1.42 -3.91 -2.13 -3.4 -1.12 -4.07 -1.86 -5.13 -5.67 -.99 -3.53 -.97&#xA;-5.83 .11 -11.87 .73 -4.12 1.64 -7.49 2.01 -7.49 1.04 0 5.54 -6.21 6.34&#xA;-8.75 .58 -1.84 .33 -2.25 -1.36 -2.25 -1.17 0 -2.07 .65 -2.07 1.5z M2204&#xA;587 c0 .55 -1.62 1 -3.59 1 -2.75 0 -3.72 .47 -4.12 2 -.33 1.28 -1.28 2&#xA;-2.77 2 -1.28 0 -3.11 1 -3.97 2.22 -.96 1.38 -1.56 4.38 -1.56 7.89 0 3.89&#xA;-.43 5.84 -1.37 6.2 -.76 .29 -1.67 2.11 -2.03 4.05 -.76 4.06 -5.04 8.14&#xA;-9.57 9.13 -1.66 .37 -3.02 1.08 -3.02 1.58 0 .51 -.9 .92 -2 .92 -1.32 0 -2&#xA;.67 -2 1.95 0 1.7 .82 1.99 6.25 2.25 l6.25 .3 -.36 9.5 c-.2 5.23 -.76 9.75&#xA;-1.24 10.05 -1.16 .73 -2.9 10.09 -2.9 15.58 0 2.4 -.37 4.36 -.83 4.36 -.98&#xA;0 -3.19 13.7 -3.18 19.75 0 2.34 -.4 4.25 -.9 4.25 -.5 0 -1.23 2.33 -1.62&#xA;5.18 -.58 4.18 -.4 5.4 .91 6.36 .89 .65 1.76 1.74 1.76 2.64 0 1.34 .96 1.82&#xA;5.83 1.82 4.16 0 7.65 -.74 11.51 -2.45 3.05 -1.35 5.81 -3.15 6.14 -4 .33&#xA;-.85 1.39 -1.55 2.37 -1.55 .98 0 2.52 -1.13 3.43 -2.52 l1.65 -2.52 -4.28&#xA;.65 c-2.36 .36 -4.99 1.01 -5.85 1.46 -1.8 .92 -3.91 .68 -5.89 -.56 -1.39&#xA;-.87 -1.29 -1.49 .62 -22.27 .32 -3.44 .9 -6.25 1.31 -6.25 1 0 3.03 -10.33&#xA;3.03 -15.47 0 -2.27 .41 -4.56 .88 -5.08 1.09 -1.2 3.12 -11.72 3.12 -16.09&#xA;l0 -3.3 13.25 -.28 c10.99 -.23 13.25 -.54 13.25 -1.78 0 -1.16 -1.54 -1.57&#xA;-6.72 -1.79 -6.48 -.28 -6.87 -.45 -11.25 -4.83 -4.12 -4.12 -4.53 -4.97&#xA;-4.53 -9.35 0 -2.66 .89 -6.76 1.98 -9.17 1.09 -2.4 1.99 -5.37 2 -6.61 .01&#xA;-1.34 .64 -2.25 1.55 -2.25 .84 0 1.96 -1.09 2.43 -2.33 .47 -1.24 .77 -2.63&#xA;.53 -3.05 -.66 -1.12 -4.48 -.78 -4.48 .38z M2237.75 685.77 c-.96 .21 -1.75&#xA;.79 -1.75 1.3 0 .51 -.82 .93 -1.83 .93 -2.24 0 -6.17 4.02 -6.17 6.31 0 .93&#xA;-.51 1.69 -1.13 1.69 -1.85 0 -.2 7.01 2.27 9.64 1.77 1.88 3.24 2.35 7.29&#xA;2.35 4.41 -.01 5.48 -.44 8.18 -3.25 3.67 -3.83 5.39 -6.88 5.39 -9.55 0&#xA;-2.39 -5.77 -8.73 -8.5 -9.35 -1.1 -.25 -2.79 -.28 -3.75 -.07z M2612 687 c0&#xA;.55 -1.05 1 -2.6 1 -1.98 0 -3.98 1.07 -6.22 3.6 -2.29 2.58 -3.18 4.58 -3.18&#xA;7.1 0 1.93 .92 4.8 2.07 6.4 1.88 2.64 2.6 2.9 7.9 2.9 5.42 0 6.05 -.25 8.93&#xA;-3.53 1.71 -1.94 3.1 -4.18 3.16 -5.12 .27 -4.35 -.39 -7.99 -1.82 -9.59 -.86&#xA;-.96 -2.14 -1.75 -2.88 -1.75 -.74 0 -1.35 -.45 -1.35 -1 0 -.55 -.9 -1 -2 -1&#xA;-1.1 0 -2 .45 -2 1z" fill="#050505" fill-rule="evenodd" stroke="#050505" stroke-linejoin="round" stroke-width="0.80"/>
</g>
<path d="M1998.46 391 c0 23.38 .13 32.94 .29 21.25 .16 -11.69 .16 -30.81 0 -42.5&#xA;-.16 -11.69 -.29 -2.13 -.29 21.25z" fill="#4482ad" fill-rule="evenodd" stroke="#4482ad" stroke-linejoin="round" stroke-width="0.80"/>
<path d="M1321.44 477.5 c-0 14.85 .14 21.06 .31 13.81 .17 -7.25 .17 -19.4 0 -27 -.17&#xA;-7.6 -.31 -1.66 -.31 13.19z M2590.04 567.66 c-3 .77 -6.2 2.08 -7.11 2.9&#xA;-.91 .82 -2.39 1.21 -3.31 .86 -.92 -.35 -2.21 -.18 -2.89 .38 -.68 .56 -3.93&#xA;1.72 -7.23 2.58 -3.29 .86 -6.14 2.02 -6.33 2.59 -.19 .57 -1.04 1.03 -1.88&#xA;1.03 -1.39 0 -1.42 .15 -.33 1.46 .66 .8 .94 1.89 .61 2.42 -.36 .58 1.21 .84&#xA;3.94 .66 3.21 -.22 5.18 .21 6.73 1.47 l2.19 1.77 -1.62 10.36 c-.89 5.7&#xA;-2.44 13.29 -3.43 16.86 -.99 3.58 -1.89 6.64 -1.99 6.81 -.1 .17 -1.91 -.62&#xA;-4.02 -1.75 -2.11 -1.13 -4.58 -2.06 -5.48 -2.06 -.9 0 -2.2 -.67 -2.89 -1.5&#xA;-.76 -.92 -2.95 -1.5 -5.64 -1.5 -5.33 0 -16.39 2.96 -22.43 6.01 -4.73 2.38&#xA;-10.6 6.86 -16.08 12.26 -5.33 5.26 -12.22 13.5 -13.98 16.74 -.89 1.64 -2.05&#xA;3.54 -2.59 4.24 -.53 .69 -2.13 4.19 -3.56 7.76 -3.58 8.99 -5.91 24 -3.73 24&#xA;.54 0 .99 1.96 .99 4.37 0 2.85 .69 5.25 2 6.91 1.1 1.4 2 2.98 2 3.51 0 .53&#xA;1.78 2.8 3.95 5.04 5.11 5.27 10.1 6.71 17.87 5.15 3.13 -.63 8.43 -2.46 11.8&#xA;-4.07 3.36 -1.61 8.61 -5.06 11.67 -7.67 10.73 -9.15 17.52 -14.67 18.42&#xA;-14.96 1.21 -.4 -.21 14.15 -1.74 17.85 -.65 1.58 -.93 3.86 -.61 5.07 .32&#xA;1.21 .09 2.79 -.5 3.51 -.83 .99 -.61 1.3 .9 1.3 2.63 0 23.03 -6.77 26.44&#xA;-8.77 2.51 -1.47 4.21 -4.51 3.13 -5.59 -.26 -.26 -2.86 -.23 -5.78 .07 -4.6&#xA;.47 -5.39 .3 -5.9 -1.34 -.33 -1.04 -.17 -4.81 .35 -8.38 2.05 -14.1 4.11&#xA;-26.69 4.99 -30.54 .51 -2.23 1.46 -8.08 2.1 -13 .65 -4.92 1.54 -9.85 2&#xA;-10.95 .45 -1.1 1.51 -5.83 2.35 -10.5 .84 -4.67 2.4 -12.77 3.48 -18 1.07&#xA;-5.23 2.71 -13.33 3.64 -18 .93 -4.67 2.57 -10.22 3.64 -12.33 1.07 -2.1 1.81&#xA;-4.41 1.64 -5.13 -.25 -1.07 -1.28 -1.05 -5.77 .11z M1983.84 580.74 c-4.6&#xA;.24 -6.83 .79 -7.21 1.78 -.3 .79 .12 2.1 .94 2.92 .82 .82 3.08 1.79 5.01&#xA;2.15 2.07 .39 4.15 1.62 5.04 2.98 1.2 1.84 1.38 4.04 .85 10.63 -.37 4.57&#xA;-1.53 12.66 -2.57 17.97 -1.05 5.31 -1.91 11.08 -1.91 12.81 0 1.73 -.42 2.89&#xA;-.94 2.57 -.54 -.34 -.93 1.52 -.9 4.38 .02 2.73 -.24 5.42 -.59 5.98 -.35&#xA;.56 -.87 3.85 -1.16 7.31 -.29 3.46 -.94 7.19 -1.44 8.29 -.5 1.1 -1.56 5.6&#xA;-2.35 10 -.79 4.4 -2.15 10.92 -3.03 14.5 -.87 3.58 -1.82 7.51 -2.1 8.75&#xA;-.29 1.24 -1.18 2.25 -2 2.25 -.81 0 -1.48 .62 -1.48 1.38 0 1.44 -2.93 2.58&#xA;-6.7 2.6 -3.53 .02 -7.3 2.18 -7.3 4.17 0 1.69 1.12 1.85 13.75 2 18.48 .21&#xA;26.99 .36 31.02 .13 4.03 -.22 3.59 -.82 4.18 -2.09 .58 -1.26 1.05 -2.48&#xA;1.05 -2.7 0 -.22 -1.46 -.69 -3.25 -1.03 -1.79 -.34 -4.55 -1.74 -6.13 -3.11&#xA;-2.78 -2.41 -2.86 -2.72 -2.27 -9.18 .34 -3.68 1.54 -11.86 2.68 -18.19 1.14&#xA;-6.33 2.45 -13.75 2.92 -16.5 .46 -2.75 1.18 -6.06 1.59 -7.36 .4 -1.26 .49&#xA;-1.89 1.83 -1.93 1.35 -.03 3.96 .53 9.41 1.65 4.79 .98 13.21 .35 13.21 -1 0&#xA;-.48 1.58 -.87 3.5 -.87 2.32 0 3.5 -.47 3.5 -1.39 0 -.77 -.71 -1.67 -1.58&#xA;-2 -.87 -.33 -3.91 -.62 -6.75 -.63 -3.78 -.02 -6.9 -.89 -11.64 -3.25 -8.84&#xA;-4.4 -9.46 -6.2 -6.44 -18.62 1.26 -5.17 2.6 -12.31 2.98 -15.86 .55 -5.12&#xA;1.29 -7.15 3.59 -9.77 3.11 -3.54 10.1 -6.47 15.44 -6.47 1.79 0 5.56 .53&#xA;8.38 1.19 4.29 .99 5.83 2.01 9.33 6.19 l4.19 5 -.02 11.06 c-.02 10.12 -.26&#xA;11.55 -2.87 16.81 -1.57 3.16 -3.21 5.75 -3.66 5.75 -.45 0 -1.07 .79 -1.38&#xA;1.75 -.31 .96 -2.45 2.54 -4.76 3.51 -3.08 1.29 -3.9 2.05 -3.08 2.87 .82 .82&#xA;1.9 .55 4.1 -1.01 1.64 -1.17 3.28 -2.12 3.64 -2.12 .36 0 .35 .49 -.03 1.1&#xA;-1.07 1.72 2.57 -.45 5.86 -3.5 1.54 -1.43 3.05 -2.6 3.35 -2.6 .3 0 3.65&#xA;-3.1 7.43 -6.88 7 -7 10.91 -9.29 10.91 -6.4 0 .84 1.91 3.39 4.25 5.66 2.34&#xA;2.27 4.94 5.02 5.77 6.12 1.39 1.82 3.13 8.28 7.54 28 .86 3.85 1.97 9.81&#xA;2.46 13.25 .49 3.44 1.4 8.09 2 10.34 .61 2.25 1.74 8.36 2.53 13.58 .78 5.22&#xA;1.76 10.01 2.16 10.66 .41 .65 .75 1.81 .76 2.59 .04 2.34 2.01 2.27 4.19&#xA;-.14 2.07 -2.3 20.34 -30.52 20.34 -31.42 0 -.27 .56 -1.1 1.25 -1.84 .69&#xA;-.74 3.05 -4.36 5.25 -8.04 2.2 -3.68 6.14 -10.03 8.75 -14.11 2.61 -4.08&#xA;4.75 -7.65 4.75 -7.93 0 -.28 .89 -1.47 1.98 -2.64 1.09 -1.17 3.23 -3.94&#xA;4.75 -6.15 1.52 -2.22 3.78 -5.13 5.01 -6.47 1.23 -1.34 5.06 -3.88 8.5 -5.64&#xA;4.92 -2.52 6.26 -3.69 6.25 -5.48 l-.01 -2.28 -20.99 -.07 -20.99 -.07 0 2.92&#xA;c0 2.74 .33 2.98 5.49 3.96 5.33 1.01 5.5 1.15 6.1 4.82 .34 2.08 .42 5 .17&#xA;6.48 -.46 2.82 -3.6 10.63 -5.3 13.2 -.55 .83 -1.56 2.62 -2.25 4 -1.07 2.14&#xA;-3.92 6.8 -9.47 15.52 -.69 1.09 -1.81 3.1 -2.48 4.48 -1.95 3.98 -6.6 10.2&#xA;-8.77 11.72 -1.8 1.26 -2.08 1.17 -2.87 -.91 -.48 -1.27 -1.23 -5.23 -1.66&#xA;-8.81 -.43 -3.58 -.88 -7.17 -.99 -8 -.11 -.83 -1.46 -7.35 -3 -14.5 -1.54&#xA;-7.15 -2.99 -15.89 -3.22 -19.41 -.35 -5.27 -.04 -7.11 1.77 -10.32 1.21&#xA;-2.15 2 -4.1 1.76 -4.34 -.24 -.24 -7.88 -.73 -16.98 -1.09 l-16.54 -.65 .98&#xA;-3.6 c.54 -1.98 1.45 -4.17 2.02 -4.87 .57 -.7 1.04 -3.75 1.04 -6.78 0 -3.77&#xA;-.72 -6.9 -2.29 -9.96 -1.26 -2.45 -3.32 -5.13 -4.58 -5.96 -1.26 -.83 -6.2&#xA;-2.18 -10.98 -3.02 -6.54 -1.14 -15.28 -1.47 -35.31 -1.32 -14.64 .11 -29.62&#xA;.35 -33.28 .54z M2345.01 580.83 c-1.56 .52 -1.18 2.17 .49 2.17 .82 0 1.5 .6&#xA;1.5 1.34 0 1.48 4.1 3.66 6.89 3.66 1.19 0 2.22 1.28 3.05 3.81 1.36 4.12&#xA;1.19 5.46 -4.4 35.69 -1.43 7.7 -3.04 17.38 -3.59 21.5 -.55 4.12 -1.65 10.65&#xA;-2.45 14.5 -.8 3.85 -2.1 10.15 -2.9 14 -2.6 12.6 -4.06 16.99 -6.4 19.33&#xA;-1.5 1.49 -4.32 2.63 -8 3.23 -3.13 .51 -5.79 .93 -5.91 .94 -.12 0 .06 .73&#xA;.4 1.61 .34 .88 .04 1.96 -.66 2.39 -2.22 1.37 25.6 2.32 49.86 1.69 19.59&#xA;-.51 23.84 -.37 26.25 .88 1.58 .82 2.88 1.93 2.88 2.46 0 .54 .48 .97 1.06&#xA;.97 .75 0 .86 -.32 .4 -1.07 -.37 -.59 .23 -2.05 1.33 -3.25 2.26 -2.47 7.22&#xA;-12.63 7.22 -14.8 0 -.79 .59 -2.32 1.32 -3.4 1.72 -2.58 4.68 -10.59 4.68&#xA;-12.67 0 -.9 .53 -1.81 1.18 -2.03 1.64 -.55 .23 -3.77 -1.65 -3.77 -.84 0&#xA;-1.53 .61 -1.53 1.35 0 .74 -.9 2.16 -2 3.15 -1.1 1 -2 2.26 -2 2.82 0 1.14&#xA;-.26 1.45 -9.76 11.48 -3.8 4.02 -7.33 7.19 -7.83 7.04 -.5 -.14 -3.16 .76&#xA;-5.91 2.01 -3.91 1.78 -7.52 2.4 -16.52 2.84 -9.87 .48 -11.71 .33 -12.87&#xA;-1.06 -1.1 -1.33 -1.14 -2.45 -.23 -6.07 .62 -2.45 1.12 -6.05 1.12 -8 0&#xA;-1.96 .5 -3.56 1.11 -3.56 .61 0 .89 -.58 .62 -1.28 -.27 -.7 .12 -4.42 .86&#xA;-8.25 .74 -3.83 1.36 -8.66 1.38 -10.73 .02 -2.07 .48 -4.54 1.02 -5.5 1.05&#xA;-1.85 3.07 -11.69 5.6 -27.24 .85 -5.23 1.92 -11.08 2.39 -13 .47 -1.92 1.39&#xA;-7.1 2.04 -11.5 .66 -4.4 1.97 -9.12 2.92 -10.5 .95 -1.38 2 -3.26 2.34 -4.18&#xA;.38 -1.06 2.22 -1.92 5 -2.34 2.42 -.36 4.81 -.96 5.33 -1.32 .51 -.36 1.45&#xA;-1.84 2.08 -3.28 l1.15 -2.62 -23.91 .12 c-13.15 .06 -24.36 .27 -24.92 .45z&#xA;M2472 584.93 c0 .59 -.68 1.07 -1.51 1.07 -.83 0 -2.29 .38 -3.25 .84 -.96&#xA;.46 -3.51 1.7 -5.67 2.75 -2.16 1.05 -4.67 3.26 -5.57 4.91 -.9 1.65 -2.23&#xA;5.92 -2.94 9.5 -.72 3.58 -2.26 8.59 -3.43 11.14 -2.11 4.61 -2.18 4.66 -9.87&#xA;6.5 -4.26 1.02 -7.75 2.33 -7.75 2.91 -0 2.27 2.63 3.45 7.73 3.45 4.61 0&#xA;5.45 .3 6.17 2.25 .46 1.24 .46 3.26 -.01 4.5 -.47 1.24 -1.13 5.97 -1.47&#xA;10.5 -.34 4.53 -1.25 10.46 -2.02 13.18 -.77 2.71 -1.4 6.2 -1.4 7.75 0 1.55&#xA;-.37 2.82 -.83 2.82 -.45 0 -.63 1.32 -.4 2.93 .24 1.61 -.27 5.1 -1.12 7.75&#xA;-.85 2.65 -2.1 9.21 -2.78 14.58 l-1.23 9.76 2.87 3 c2.46 2.56 3.38 2.91&#xA;6.42 2.41 4.67 -.77 15.04 -5.75 18.34 -8.81 1.64 -1.52 2.78 -1.99 3.05&#xA;-1.27 .24 .65 .79 .28 1.25 -.85 .45 -1.1 1.63 -2.87 2.62 -3.94 .99 -1.07&#xA;1.8 -2.53 1.8 -3.26 0 -1.09 -.33 -1.12 -1.9 -.13 -1.05 .65 -1.7 1.71 -1.45&#xA;2.35 .25 .64 -.24 1.73 -1.09 2.43 -1.36 1.13 -1.6 1.1 -2.14 -.32 -.55 -1.43&#xA;-.87 -1.46 -3.26 -.25 -4.48 2.26 -7.82 2.72 -9.05 1.24 -.82 -.99 -.85 -3.35&#xA;-.13 -8.74 2.36 -17.57 4.52 -29.44 5.46 -30.08 .56 -.38 .75 -.96 .42 -1.28&#xA;-.32 -.32 -.18 -2.71 .31 -5.3 .49 -2.6 1.33 -7.77 1.87 -11.51 .54 -3.73 1.7&#xA;-7.9 2.59 -9.25 1.55 -2.36 2.06 -2.46 12.25 -2.48 5.85 -.01 11.31 -.45&#xA;12.13 -.97 1.26 -.8 1.33 -1.23 .43 -2.68 -.8 -1.28 -2.62 -1.77 -7.06 -1.9&#xA;-3.29 -.1 -7.4 -.91 -9.13 -1.81 -2.21 -1.14 -3.46 -2.74 -4.19 -5.38 -.57&#xA;-2.06 -1.04 -4.68 -1.05 -5.82 -.01 -3.97 3 -12.14 6 -16.28 1.66 -2.3 3.13&#xA;-5.16 3.26 -6.37 .15 -1.41 -.39 -2.33 -1.51 -2.56 -.96 -.2 -1.75 .12 -1.75&#xA;.71z M2197.59 588.48 c-3.25 1.34 -6.3 3.01 -6.78 3.73 -2.22 3.3 -2.71 4.78&#xA;-3.29 9.82 -.34 2.97 -.99 5.87 -1.45 6.44 -.46 .57 -1.14 2.49 -1.52 4.26&#xA;-.38 1.77 -1.93 4.27 -3.46 5.55 -1.52 1.28 -5.26 2.93 -8.3 3.66 -4.75 1.14&#xA;-5.53 1.66 -5.53 3.65 0 2.17 .44 2.35 6.62 2.62 l6.62 .29 -.27 7 c-.15 3.85&#xA;-.9 9.25 -1.67 12 -.77 2.75 -1.86 7.92 -2.43 11.5 -.57 3.58 -1.73 10.33&#xA;-2.58 15 -.85 4.67 -1.55 9.99 -1.55 11.82 -0 1.82 -.42 4.09 -.93 5.05 -1.55&#xA;2.9 -2.13 11.16 -.95 13.47 .61 1.19 2.07 2.94 3.24 3.89 1.54 1.24 3.11 1.56&#xA;5.63 1.12 4.66 -.81 15.15 -5.58 16.87 -7.67 .75 -.92 2.22 -1.67 3.25 -1.67&#xA;1.03 0 1.88 -.56 1.88 -1.25 0 -.69 1.13 -2.56 2.5 -4.16 1.37 -1.6 2.5 -3.3&#xA;2.5 -3.79 0 -.51 -.85 -.43 -2 .19 -1.1 .59 -2 1.72 -2 2.5 0 .87 -.6 1.2&#xA;-1.51 .85 -.83 -.32 -2.09 -.1 -2.79 .48 -.7 .58 -3.16 1.48 -5.46 2 -3.43&#xA;.77 -4.39 .69 -5.34 -.46 -1.13 -1.36 -1.05 -3.87 .72 -20.87 .34 -3.3 .99&#xA;-6.46 1.44 -7.02 .45 -.56 1.32 -4.16 1.94 -8 .62 -3.84 1.82 -10.21 2.67&#xA;-14.16 .84 -3.95 1.83 -9.58 2.18 -12.5 l.65 -5.32 13.26 -.5 c7.29 -.27&#xA;13.25 -.84 13.25 -1.25 -0 -.41 -.01 -1.46 -.01 -2.33 0 -1.2 -.66 -1.44&#xA;-2.75 -.99 -1.51 .33 -4.19 .18 -5.95 -.34 -2.39 -.69 -3.3 -.63 -3.62 .24&#xA;-.28 .78 -1.04 .58 -2.3 -.61 -1.03 -.98 -3.36 -3.14 -5.17 -4.8 -2.93 -2.69&#xA;-3.27 -3.54 -3.06 -7.72 .34 -6.8 4.09 -16.82 7.22 -19.28 1.45 -1.14 2.63&#xA;-2.71 2.63 -3.5 0 -2.2 -5.67 -1.72 -12.41 1.05z M2549.73 624.19 c3.72 1.21&#xA;7 2.47 7.27 2.8 .28 .33 1.99 1.65 3.82 2.92 1.83 1.28 3.76 3.49 4.3 4.91&#xA;.67 1.76 .63 4.85 -.13 9.63 -.61 3.87 -2.07 9.74 -3.24 13.04 -1.17 3.3&#xA;-4.36 9.74 -7.08 14.31 -2.72 4.57 -7.93 11.26 -11.56 14.88 -6.6 6.56 -11.8&#xA;9.7 -17.86 10.77 -1.76 .31 -5.31 .09 -7.88 -.48 -3.48 -.78 -5.66 -2.12&#xA;-8.54 -5.26 -3.91 -4.27 -5.38 -7.76 -6.49 -15.46 -.73 -5.06 1.01 -14.8 3.88&#xA;-21.75 2.64 -6.38 6.13 -13.85 6.78 -14.5 .28 -.27 2.23 -2.65 4.34 -5.28&#xA;3.67 -4.56 9.46 -8.27 17.63 -11.28 1.94 -.72 4.53 -1.33 5.76 -1.37 1.23&#xA;-.04 5.28 .92 9 2.12z M2235.26 686.91 c-1.78 1 -3.95 2.41 -4.82 3.13 -.87&#xA;.72 -2.26 2.63 -3.1 4.25 -.94 1.81 -1.3 4.15 -.93 6.07 .32 1.72 1.6 4.29&#xA;2.84 5.72 1.24 1.42 3.43 2.88 4.87 3.24 1.58 .39 3.84 .04 5.68 -.88 3.81&#xA;-1.9 8.97 -7.68 9.79 -10.97 .36 -1.45 -.04 -3.89 -.97 -5.84 -.88 -1.85&#xA;-2.16 -3.81 -2.86 -4.38 -.7 -.56 -2.62 -1.28 -4.27 -1.59 -1.95 -.37 -4.13&#xA;.07 -6.24 1.25z M2605.32 689.46 c-2.22 1.9 -4.59 4.79 -5.27 6.42 -1.06 2.56&#xA;-1 3.43 .43 6.45 .91 1.92 2.44 4.2 3.4 5.07 .96 .87 3.07 1.84 4.68 2.16&#xA;2.12 .42 3.88 -.06 6.34 -1.74 5.12 -3.49 7.4 -7.12 7.4 -11.8 0 -3.13 -.67&#xA;-4.79 -2.84 -7.06 -2.13 -2.22 -3.75 -2.97 -6.47 -2.97 -2.7 0 -4.67 .89&#xA;-7.67 3.46z" fill="#050505" fill-rule="evenodd" stroke="#050505" stroke-linejoin="round" stroke-opacity="0.65" stroke-width="3.00"/>
</svg>